<svg xmlns="http://www.w3.org/2000/svg" xmlns:xlink="http://www.w3.org/1999/xlink" viewBox="0 0 1600 430" width="1600" height="430" role="img" aria-labelledby="ti de" preserveAspectRatio="xMidYMid meet" font-family="ui-monospace, SFMono-Regular, Menlo, 'Courier New', 'Malgun Gothic', monospace">
<title id="ti">Hoijun Kim - biosignal and edge-AI researcher</title>
<desc id="de">A dark laboratory oscilloscope reading four looping biosignal channels - three forearm EMG channels (FDS, EDC, APB) and one video pose channel - with a sweeping scan bar and a prosthetic gripper that flexes in response, representing muscle signals decoded into motion.</desc>
<defs>
<linearGradient id="bg" x1="0" y1="0" x2="0" y2="1"><stop offset="0" stop-color="#06130f"/><stop offset="0.55" stop-color="#081a15"/><stop offset="1" stop-color="#040d0b"/></linearGradient>
<radialGradient id="crt" cx="0.5" cy="0.44" r="0.75"><stop offset="0" stop-color="#0f342b" stop-opacity="0.35"/><stop offset="0.7" stop-color="#06130f" stop-opacity="0.05"/><stop offset="1" stop-color="#01100c" stop-opacity="0.85"/></radialGradient>
<linearGradient id="sweep" x1="0" y1="0" x2="1" y2="0"><stop offset="0" stop-color="#39f5cb" stop-opacity="0"/><stop offset="0.78" stop-color="#39f5cb" stop-opacity="0.06"/><stop offset="1" stop-color="#c4fff0" stop-opacity="0.30"/></linearGradient>
<filter id="glow" x="-8%" y="-45%" width="116%" height="190%"><feGaussianBlur stdDeviation="1.35" result="b"/><feMerge><feMergeNode in="b"/><feMergeNode in="SourceGraphic"/></feMerge></filter>
<pattern id="grid" width="26" height="26" patternUnits="userSpaceOnUse"><path d="M26 0H0V26" fill="none" stroke="#12463b" stroke-width="0.6" opacity="0.5"/></pattern>
<clipPath id="screen"><rect x="22" y="98" width="1556" height="304" rx="7"/></clipPath>
<clipPath id="namewipe"><rect x="34" y="20" width="0" height="46"><animate attributeName="width" values="0;640;640;640" keyTimes="0;0.34;0.94;1" dur="5s" repeatCount="indefinite" calcMode="spline" keySplines="0.2 0.7 0.2 1;0 0 1 1;0 0 1 1"/></rect></clipPath>
</defs>
<rect x="0" y="0" width="1600" height="430" rx="18" fill="#020908"/>
<rect x="5" y="5" width="1590" height="420" rx="15" fill="url(#bg)" stroke="#13564a" stroke-width="1.3"/>
<g clip-path="url(#namewipe)"><text x="36" y="54" font-size="30" font-weight="700" letter-spacing="1.5" fill="#a8ffe6" filter="url(#glow)">HOIJUN KIM<tspan fill="#4f9e8b" font-size="21" font-weight="400"> / 김회준</tspan></text></g>
<text x="37" y="78" font-size="13" letter-spacing="0.5" fill="#4f9e8b">biosignal ML researcher  /  decoding muscle signals into motion</text>
<text x="1498" y="39" font-size="13" font-weight="700" letter-spacing="1.5" fill="#ff6b6b">REC</text><circle cx="1552" cy="34.5" r="4.5" fill="#ff6b6b"><animate attributeName="opacity" values="1;1;0.12;0.12;1" keyTimes="0;0.45;0.5;0.55;1" dur="1.6s" repeatCount="indefinite"/></circle>
<g text-anchor="end"><text x="1560" y="62" font-size="12" letter-spacing="0.5" fill="#3f8f7c">OpenVINO / Lunar Lake NPU</text><text x="1560" y="80" font-size="12" letter-spacing="1" fill="#3f8f7c">inference <tspan fill="#5df08a" font-weight="700">LIVE</tspan></text></g>
<rect x="22" y="98" width="1556" height="304" rx="7" fill="#03130f"/>
<g clip-path="url(#screen)">
  <rect x="22" y="98" width="1556" height="304" fill="url(#grid)"/>
  <line x1="90" y1="140" x2="1440" y2="140" stroke="#1c6d5b" stroke-width="0.7" stroke-dasharray="2 5" opacity="0.6"/>
  <line x1="90" y1="213" x2="1440" y2="213" stroke="#1c6d5b" stroke-width="0.7" stroke-dasharray="2 5" opacity="0.6"/>
  <line x1="90" y1="286" x2="1440" y2="286" stroke="#1c6d5b" stroke-width="0.7" stroke-dasharray="2 5" opacity="0.6"/>
  <line x1="90" y1="359" x2="1440" y2="359" stroke="#1c6d5b" stroke-width="0.7" stroke-dasharray="2 5" opacity="0.6"/>
  <rect x="22" y="0" width="1556" height="34" fill="#8affe0" opacity="0.035"><animateTransform attributeName="transform" type="translate" values="0,90;0,410;0,90" dur="7s" repeatCount="indefinite"/></rect>
  <path id="p1" d="M 96.0 140.3 L 100.5 140.1 L 105.0 139.5 L 109.5 141.0 L 114.0 138.1 L 118.5 141.3 L 123.0 141.5 L 127.5 140.5 L 132.0 140.0 L 136.5 137.6 L 140.9 139.9 L 145.4 138.8 L 149.9 139.0 L 154.4 140.2 L 158.9 142.2 L 163.4 140.8 L 167.9 139.4 L 172.4 137.7 L 176.9 140.9 L 181.4 144.5 L 185.9 141.2 L 190.4 141.8 L 194.9 135.8 L 199.4 134.3 L 203.9 138.7 L 208.4 144.6 L 212.9 145.5 L 217.4 141.6 L 221.9 133.0 L 226.4 128.2 L 230.8 129.7 L 235.3 139.6 L 239.8 150.5 L 244.3 148.6 L 248.8 143.4 L 253.3 133.3 L 257.8 128.1 L 262.3 130.5 L 266.8 157.4 L 271.3 152.1 L 275.8 148.0 L 280.3 133.4 L 284.8 116.0 L 289.3 121.8 L 293.8 138.6 L 298.3 161.0 L 302.8 158.9 L 307.3 143.6 L 311.8 118.0 L 316.3 118.2 L 320.7 131.6 L 325.2 160.9 L 329.7 165.0 L 334.2 146.3 L 338.7 134.5 L 343.2 120.9 L 347.7 126.8 L 352.2 135.8 L 356.7 158.8 L 361.2 154.7 L 365.7 140.9 L 370.2 132.2 L 374.7 123.7 L 379.2 139.9 L 383.7 152.3 L 388.2 150.0 L 392.7 147.7 L 397.2 138.2 L 401.7 132.9 L 406.2 132.0 L 410.6 141.8 L 415.1 147.4 L 419.6 145.5 L 424.1 139.4 L 428.6 134.5 L 433.1 135.5 L 437.6 137.8 L 442.1 141.1 L 446.6 142.2 L 451.1 141.2 L 455.6 139.3 L 460.1 137.8 L 464.6 137.3 L 469.1 141.0 L 473.6 140.6 L 478.1 141.6 L 482.6 140.8 L 487.1 139.4 L 491.6 139.3 L 496.1 140.0 L 500.5 139.8 L 505.0 138.8 L 509.5 141.4 L 514.0 140.0 L 518.5 138.5 L 523.0 140.9 L 527.5 140.5 L 532.0 141.3 L 536.5 140.0 L 541.0 140.0 L 545.5 139.4 L 550.0 138.7 L 554.5 138.7 L 559.0 141.0 L 563.5 141.0 L 568.0 138.9 L 572.5 140.2 L 577.0 139.1 L 581.5 140.0 L 586.0 141.4 L 590.4 140.1 L 594.9 140.7 L 599.4 138.3 L 603.9 139.8 L 608.4 140.2 L 612.9 140.4 L 617.4 139.9 L 621.9 139.0 L 626.4 137.9 L 630.9 138.7 L 635.4 141.7 L 639.9 140.3 L 644.4 139.4 L 648.9 137.6 L 653.4 138.7 L 657.9 140.3 L 662.4 142.4 L 666.9 141.2 L 671.4 137.8 L 675.9 137.8 L 680.3 137.2 L 684.8 139.1 L 689.3 143.3 L 693.8 146.8 L 698.3 140.3 L 702.8 128.7 L 707.3 135.5 L 711.8 145.6 L 716.3 153.2 L 720.8 147.2 L 725.3 127.9 L 729.8 129.1 L 734.3 133.7 L 738.8 144.4 L 743.3 153.3 L 747.8 143.9 L 752.3 127.3 L 756.8 119.7 L 761.3 134.1 L 765.8 154.2 L 770.2 155.2 L 774.7 134.4 L 779.2 115.0 L 783.7 127.8 L 788.2 143.7 L 792.7 163.1 L 797.2 161.5 L 801.7 138.2 L 806.2 115.0 L 810.7 120.7 L 815.2 154.1 L 819.7 165.0 L 824.2 160.1 L 828.7 122.1 L 833.2 119.6 L 837.7 129.4 L 842.2 159.7 L 846.7 159.9 L 851.2 136.5 L 855.7 124.1 L 860.1 122.1 L 864.6 140.6 L 869.1 154.6 L 873.6 160.8 L 878.1 143.9 L 882.6 116.4 L 887.1 124.5 L 891.6 142.0 L 896.1 161.2 L 900.6 153.1 L 905.1 136.0 L 909.6 124.9 L 914.1 128.1 L 918.6 141.6 L 923.1 146.6 L 927.6 142.5 L 932.1 132.9 L 936.6 133.3 L 941.1 140.5 L 945.6 145.0 L 950.0 147.8 L 954.5 144.2 L 959.0 135.9 L 963.5 137.3 L 968.0 139.2 L 972.5 143.2 L 977.0 143.2 L 981.5 140.5 L 986.0 137.5 L 990.5 138.3 L 995.0 140.5 L 999.5 143.5 L 1004.0 139.9 L 1008.5 140.6 L 1013.0 139.8 L 1017.5 140.5 L 1022.0 140.2 L 1026.5 139.5 L 1031.0 138.7 L 1035.5 139.6 L 1039.9 140.5 L 1044.4 140.3 L 1048.9 141.6 L 1053.4 139.2 L 1057.9 138.6 L 1062.4 140.9 L 1066.9 139.7 L 1071.4 141.7 L 1075.9 142.5 L 1080.4 139.2 L 1084.9 138.0 L 1089.4 137.0 L 1093.9 138.0 L 1098.4 143.6 L 1102.9 142.2 L 1107.4 143.2 L 1111.9 139.3 L 1116.4 133.2 L 1120.9 134.7 L 1125.4 137.6 L 1129.8 142.1 L 1134.3 147.6 L 1138.8 147.2 L 1143.3 133.5 L 1147.8 131.1 L 1152.3 125.3 L 1156.8 134.4 L 1161.3 150.7 L 1165.8 149.5 L 1170.3 142.9 L 1174.8 132.9 L 1179.3 127.1 L 1183.8 122.3 L 1188.3 137.6 L 1192.8 162.7 L 1197.3 160.8 L 1201.8 149.0 L 1206.3 134.7 L 1210.8 118.1 L 1215.3 125.0 L 1219.7 137.2 L 1224.2 157.9 L 1228.7 156.0 L 1233.2 148.2 L 1237.7 124.9 L 1242.2 127.1 L 1246.7 134.6 L 1251.2 151.3 L 1255.7 160.2 L 1260.2 145.9 L 1264.7 136.9 L 1269.2 126.5 L 1273.7 134.3 L 1278.2 141.0 L 1282.7 145.6 L 1287.2 146.3 L 1291.7 143.0 L 1296.2 135.9 L 1300.7 133.2 L 1305.2 132.8 L 1309.6 139.0 L 1314.1 145.5 L 1318.6 143.9 L 1323.1 142.1 L 1327.6 140.2 L 1332.1 137.8 L 1336.6 138.5 L 1341.1 140.8 L 1345.6 141.6 L 1350.1 142.0 L 1354.6 139.8 L 1359.1 140.9 L 1363.6 139.6 L 1368.1 137.9 L 1372.6 140.7 L 1377.1 140.2 L 1381.6 139.3 L 1386.1 139.5 L 1390.6 139.0 L 1395.1 140.0 L 1399.5 140.8 L 1404.0 140.0 L 1408.5 139.9 L 1413.0 141.6 L 1417.5 140.7 L 1422.0 139.7 L 1426.5 141.1 L 1431.0 139.6 L 1435.5 141.3 L 1440.0 141.1" fill="none" stroke="#2ff0c4" stroke-width="1.7" stroke-linejoin="round" stroke-linecap="round" pathLength="1" stroke-dasharray="1 1" stroke-dashoffset="1" filter="url(#glow)"><animate attributeName="stroke-dashoffset" values="1;0" dur="5s" repeatCount="indefinite" calcMode="linear"/></path>
  <circle r="2.7" fill="#eafff9" filter="url(#glow)"><animateMotion dur="5s" repeatCount="indefinite" calcMode="linear" keyPoints="0;1" keyTimes="0;1"><mpath xlink:href="#p1"/></animateMotion></circle>
  <path id="p2" d="M 96.0 211.6 L 100.5 214.3 L 105.0 212.9 L 109.5 213.2 L 114.0 214.5 L 118.5 213.3 L 123.0 213.5 L 127.5 212.7 L 132.0 211.5 L 136.5 213.4 L 140.9 213.6 L 145.4 212.3 L 149.9 212.5 L 154.4 213.6 L 158.9 214.2 L 163.4 213.7 L 167.9 213.5 L 172.4 213.6 L 176.9 213.8 L 181.4 212.3 L 185.9 212.9 L 190.4 211.6 L 194.9 214.4 L 199.4 212.0 L 203.9 212.0 L 208.4 211.4 L 212.9 211.5 L 217.4 214.3 L 221.9 211.6 L 226.4 214.3 L 230.8 212.9 L 235.3 213.3 L 239.8 213.5 L 244.3 211.7 L 248.8 212.3 L 253.3 213.8 L 257.8 212.1 L 262.3 212.1 L 266.8 213.7 L 271.3 213.9 L 275.8 212.8 L 280.3 212.6 L 284.8 212.1 L 289.3 212.0 L 293.8 214.0 L 298.3 213.7 L 302.8 212.9 L 307.3 213.1 L 311.8 213.0 L 316.3 210.6 L 320.7 211.0 L 325.2 213.7 L 329.7 214.2 L 334.2 215.2 L 338.7 214.3 L 343.2 214.1 L 347.7 211.0 L 352.2 211.5 L 356.7 211.3 L 361.2 214.1 L 365.7 214.9 L 370.2 216.9 L 374.7 214.4 L 379.2 209.6 L 383.7 209.3 L 388.2 208.7 L 392.7 212.9 L 397.2 220.5 L 401.7 220.7 L 406.2 216.0 L 410.6 212.3 L 415.1 202.2 L 419.6 203.3 L 424.1 204.0 L 428.6 217.0 L 433.1 226.9 L 437.6 219.6 L 442.1 214.1 L 446.6 206.4 L 451.1 194.7 L 455.6 205.3 L 460.1 208.7 L 464.6 230.6 L 469.1 232.7 L 473.6 222.9 L 478.1 207.1 L 482.6 188.7 L 487.1 193.5 L 491.6 204.9 L 496.1 230.0 L 500.5 228.1 L 505.0 234.1 L 509.5 223.3 L 514.0 199.9 L 518.5 194.3 L 523.0 200.5 L 527.5 211.1 L 532.0 230.6 L 536.5 235.1 L 541.0 219.4 L 545.5 213.2 L 550.0 193.2 L 554.5 192.3 L 559.0 204.1 L 563.5 217.4 L 568.0 224.8 L 572.5 221.3 L 577.0 215.0 L 581.5 202.3 L 586.0 199.9 L 590.4 207.3 L 594.9 213.9 L 599.4 221.1 L 603.9 219.5 L 608.4 215.1 L 612.9 210.9 L 617.4 206.0 L 621.9 208.5 L 626.4 210.5 L 630.9 215.1 L 635.4 218.9 L 639.9 214.0 L 644.4 212.7 L 648.9 210.9 L 653.4 209.1 L 657.9 210.8 L 662.4 211.2 L 666.9 214.5 L 671.4 213.9 L 675.9 215.1 L 680.3 211.5 L 684.8 212.2 L 689.3 211.7 L 693.8 212.2 L 698.3 212.8 L 702.8 214.8 L 707.3 212.6 L 711.8 213.6 L 716.3 212.8 L 720.8 212.3 L 725.3 213.9 L 729.8 214.5 L 734.3 212.5 L 738.8 212.2 L 743.3 211.6 L 747.8 214.1 L 752.3 212.8 L 756.8 212.5 L 761.3 213.3 L 765.8 213.4 L 770.2 214.6 L 774.7 214.4 L 779.2 211.6 L 783.7 211.8 L 788.2 212.5 L 792.7 213.3 L 797.2 214.4 L 801.7 213.9 L 806.2 212.3 L 810.7 213.8 L 815.2 212.0 L 819.7 212.9 L 824.2 213.7 L 828.7 214.9 L 833.2 214.1 L 837.7 212.6 L 842.2 212.4 L 846.7 212.8 L 851.2 212.5 L 855.7 213.9 L 860.1 212.4 L 864.6 210.4 L 869.1 210.0 L 873.6 210.3 L 878.1 214.2 L 882.6 217.7 L 887.1 215.3 L 891.6 208.2 L 896.1 206.3 L 900.6 210.5 L 905.1 216.0 L 909.6 221.5 L 914.1 219.4 L 918.6 211.4 L 923.1 204.9 L 927.6 208.1 L 932.1 212.9 L 936.6 230.3 L 941.1 229.9 L 945.6 213.3 L 950.0 194.9 L 954.5 202.9 L 959.0 217.6 L 963.5 233.9 L 968.0 230.3 L 972.5 223.9 L 977.0 206.8 L 981.5 188.0 L 986.0 210.2 L 990.5 222.9 L 995.0 231.9 L 999.5 216.9 L 1004.0 195.7 L 1008.5 191.2 L 1013.0 201.8 L 1017.5 226.5 L 1022.0 228.9 L 1026.5 224.8 L 1031.0 210.9 L 1035.5 192.7 L 1039.9 197.8 L 1044.4 220.4 L 1048.9 227.5 L 1053.4 234.1 L 1057.9 207.4 L 1062.4 200.1 L 1066.9 196.1 L 1071.4 211.2 L 1075.9 227.3 L 1080.4 227.7 L 1084.9 217.1 L 1089.4 201.0 L 1093.9 200.7 L 1098.4 209.7 L 1102.9 218.0 L 1107.4 221.7 L 1111.9 215.1 L 1116.4 205.9 L 1120.9 204.8 L 1125.4 212.2 L 1129.8 215.2 L 1134.3 217.6 L 1138.8 214.9 L 1143.3 211.4 L 1147.8 210.3 L 1152.3 212.0 L 1156.8 212.5 L 1161.3 215.6 L 1165.8 212.9 L 1170.3 213.0 L 1174.8 211.5 L 1179.3 212.4 L 1183.8 213.5 L 1188.3 215.1 L 1192.8 215.0 L 1197.3 213.8 L 1201.8 212.8 L 1206.3 213.0 L 1210.8 212.0 L 1215.3 212.5 L 1219.7 214.3 L 1224.2 213.9 L 1228.7 214.1 L 1233.2 212.3 L 1237.7 211.5 L 1242.2 212.1 L 1246.7 213.8 L 1251.2 212.6 L 1255.7 212.2 L 1260.2 214.2 L 1264.7 213.0 L 1269.2 212.5 L 1273.7 214.4 L 1278.2 212.4 L 1282.7 212.2 L 1287.2 212.4 L 1291.7 213.0 L 1296.2 213.9 L 1300.7 212.6 L 1305.2 213.5 L 1309.6 213.4 L 1314.1 213.4 L 1318.6 213.0 L 1323.1 212.9 L 1327.6 211.8 L 1332.1 213.0 L 1336.6 212.4 L 1341.1 213.9 L 1345.6 213.5 L 1350.1 214.0 L 1354.6 213.7 L 1359.1 212.2 L 1363.6 213.2 L 1368.1 213.4 L 1372.6 212.0 L 1377.1 214.0 L 1381.6 211.7 L 1386.1 212.6 L 1390.6 212.9 L 1395.1 212.1 L 1399.5 214.3 L 1404.0 214.5 L 1408.5 214.5 L 1413.0 213.9 L 1417.5 214.4 L 1422.0 213.8 L 1426.5 213.8 L 1431.0 213.7 L 1435.5 213.9 L 1440.0 213.5" fill="none" stroke="#5df08a" stroke-width="1.7" stroke-linejoin="round" stroke-linecap="round" pathLength="1" stroke-dasharray="1 1" stroke-dashoffset="1" filter="url(#glow)"><animate attributeName="stroke-dashoffset" values="1;0" dur="5s" repeatCount="indefinite" calcMode="linear"/></path>
  <circle r="2.7" fill="#eafff9" filter="url(#glow)"><animateMotion dur="5s" repeatCount="indefinite" calcMode="linear" keyPoints="0;1" keyTimes="0;1"><mpath xlink:href="#p2"/></animateMotion></circle>
  <path id="p3" d="M 96.0 285.4 L 100.5 284.9 L 105.0 285.6 L 109.5 287.3 L 114.0 286.7 L 118.5 286.2 L 123.0 284.9 L 127.5 286.7 L 132.0 285.0 L 136.5 285.8 L 140.9 286.9 L 145.4 285.5 L 149.9 285.7 L 154.4 287.1 L 158.9 284.7 L 163.4 285.4 L 167.9 285.6 L 172.4 286.1 L 176.9 287.4 L 181.4 287.6 L 185.9 285.5 L 190.4 284.4 L 194.9 286.0 L 199.4 286.1 L 203.9 286.7 L 208.4 286.2 L 212.9 287.6 L 217.4 287.4 L 221.9 286.6 L 226.4 287.5 L 230.8 284.7 L 235.3 285.8 L 239.8 284.9 L 244.3 284.5 L 248.8 286.7 L 253.3 285.7 L 257.8 285.2 L 262.3 284.8 L 266.8 284.9 L 271.3 286.2 L 275.8 285.5 L 280.3 285.5 L 284.8 287.5 L 289.3 285.7 L 293.8 287.0 L 298.3 284.6 L 302.8 286.6 L 307.3 285.6 L 311.8 287.3 L 316.3 287.6 L 320.7 285.5 L 325.2 285.9 L 329.7 286.8 L 334.2 285.0 L 338.7 284.9 L 343.2 285.9 L 347.7 287.1 L 352.2 286.8 L 356.7 285.7 L 361.2 286.1 L 365.7 287.2 L 370.2 285.8 L 374.7 285.9 L 379.2 286.8 L 383.7 285.8 L 388.2 286.7 L 392.7 284.9 L 397.2 285.7 L 401.7 285.1 L 406.2 286.0 L 410.6 285.8 L 415.1 286.0 L 419.6 286.4 L 424.1 286.8 L 428.6 284.6 L 433.1 287.3 L 437.6 286.9 L 442.1 284.8 L 446.6 287.5 L 451.1 287.4 L 455.6 286.7 L 460.1 285.5 L 464.6 287.4 L 469.1 287.1 L 473.6 285.3 L 478.1 284.8 L 482.6 284.8 L 487.1 284.7 L 491.6 285.7 L 496.1 285.5 L 500.5 284.8 L 505.0 285.1 L 509.5 286.9 L 514.0 284.8 L 518.5 286.5 L 523.0 287.4 L 527.5 286.6 L 532.0 286.5 L 536.5 285.5 L 541.0 284.9 L 545.5 289.2 L 550.0 288.8 L 554.5 287.4 L 559.0 285.1 L 563.5 280.3 L 568.0 282.7 L 572.5 290.0 L 577.0 291.6 L 581.5 287.8 L 586.0 281.2 L 590.4 277.5 L 594.9 282.9 L 599.4 295.3 L 603.9 295.4 L 608.4 292.0 L 612.9 278.5 L 617.4 274.4 L 621.9 281.9 L 626.4 296.3 L 630.9 297.9 L 635.4 288.8 L 639.9 279.2 L 644.4 270.4 L 648.9 284.7 L 653.4 294.9 L 657.9 311.0 L 662.4 296.1 L 666.9 275.2 L 671.4 263.4 L 675.9 280.2 L 680.3 303.8 L 684.8 310.5 L 689.3 284.7 L 693.8 270.6 L 698.3 269.6 L 702.8 284.4 L 707.3 300.1 L 711.8 304.5 L 716.3 293.0 L 720.8 267.9 L 725.3 268.0 L 729.8 284.4 L 734.3 294.8 L 738.8 302.5 L 743.3 286.8 L 747.8 276.1 L 752.3 270.2 L 756.8 284.3 L 761.3 290.0 L 765.8 295.1 L 770.2 291.2 L 774.7 277.9 L 779.2 277.9 L 783.7 283.0 L 788.2 293.0 L 792.7 291.6 L 797.2 288.8 L 801.7 280.2 L 806.2 282.3 L 810.7 283.9 L 815.2 288.1 L 819.7 288.7 L 824.2 286.8 L 828.7 284.8 L 833.2 283.1 L 837.7 284.8 L 842.2 286.1 L 846.7 287.6 L 851.2 286.5 L 855.7 285.4 L 860.1 284.4 L 864.6 285.9 L 869.1 285.6 L 873.6 288.0 L 878.1 284.8 L 882.6 285.3 L 887.1 285.9 L 891.6 285.4 L 896.1 287.4 L 900.6 285.0 L 905.1 287.1 L 909.6 285.8 L 914.1 287.4 L 918.6 287.0 L 923.1 285.4 L 927.6 287.2 L 932.1 285.3 L 936.6 287.6 L 941.1 285.7 L 945.6 285.3 L 950.0 286.7 L 954.5 286.2 L 959.0 287.2 L 963.5 285.3 L 968.0 286.6 L 972.5 285.1 L 977.0 284.6 L 981.5 287.0 L 986.0 286.5 L 990.5 284.7 L 995.0 285.4 L 999.5 286.3 L 1004.0 285.5 L 1008.5 284.8 L 1013.0 287.2 L 1017.5 286.5 L 1022.0 286.5 L 1026.5 287.4 L 1031.0 285.2 L 1035.5 284.6 L 1039.9 285.9 L 1044.4 287.4 L 1048.9 285.8 L 1053.4 284.9 L 1057.9 286.6 L 1062.4 287.3 L 1066.9 287.2 L 1071.4 286.7 L 1075.9 285.8 L 1080.4 286.7 L 1084.9 286.1 L 1089.4 285.5 L 1093.9 286.6 L 1098.4 287.3 L 1102.9 286.0 L 1107.4 284.8 L 1111.9 286.2 L 1116.4 286.3 L 1120.9 286.0 L 1125.4 286.9 L 1129.8 286.0 L 1134.3 286.9 L 1138.8 284.8 L 1143.3 285.5 L 1147.8 286.0 L 1152.3 285.1 L 1156.8 286.8 L 1161.3 284.6 L 1165.8 285.7 L 1170.3 285.5 L 1174.8 286.7 L 1179.3 286.1 L 1183.8 285.2 L 1188.3 285.1 L 1192.8 285.7 L 1197.3 282.2 L 1201.8 285.8 L 1206.3 287.6 L 1210.8 288.4 L 1215.3 289.4 L 1219.7 283.4 L 1224.2 280.0 L 1228.7 278.3 L 1233.2 285.5 L 1237.7 289.4 L 1242.2 295.3 L 1246.7 290.2 L 1251.2 286.7 L 1255.7 279.7 L 1260.2 275.3 L 1264.7 279.0 L 1269.2 294.1 L 1273.7 302.7 L 1278.2 299.3 L 1282.7 289.8 L 1287.2 279.6 L 1291.7 263.8 L 1296.2 271.6 L 1300.7 290.4 L 1305.2 302.6 L 1309.6 301.1 L 1314.1 294.1 L 1318.6 275.8 L 1323.1 266.7 L 1327.6 272.9 L 1332.1 285.4 L 1336.6 301.3 L 1341.1 299.0 L 1345.6 295.2 L 1350.1 276.7 L 1354.6 272.1 L 1359.1 276.8 L 1363.6 287.1 L 1368.1 293.7 L 1372.6 294.0 L 1377.1 290.1 L 1381.6 282.6 L 1386.1 278.8 L 1390.6 281.4 L 1395.1 285.9 L 1399.5 289.0 L 1404.0 287.9 L 1408.5 288.2 L 1413.0 285.5 L 1417.5 283.0 L 1422.0 284.0 L 1426.5 286.3 L 1431.0 286.9 L 1435.5 285.9 L 1440.0 285.5" fill="none" stroke="#41cfe0" stroke-width="1.7" stroke-linejoin="round" stroke-linecap="round" pathLength="1" stroke-dasharray="1 1" stroke-dashoffset="1" filter="url(#glow)"><animate attributeName="stroke-dashoffset" values="1;0" dur="5s" repeatCount="indefinite" calcMode="linear"/></path>
  <circle r="2.7" fill="#eafff9" filter="url(#glow)"><animateMotion dur="5s" repeatCount="indefinite" calcMode="linear" keyPoints="0;1" keyTimes="0;1"><mpath xlink:href="#p3"/></animateMotion></circle>
  <path id="p4" d="M 96.0 348.1 L 100.5 347.2 L 105.0 346.4 L 109.5 345.7 L 114.0 345.1 L 118.5 344.5 L 123.0 344.0 L 127.5 343.5 L 132.0 343.2 L 136.5 342.9 L 140.9 342.7 L 145.4 342.5 L 149.9 342.4 L 154.4 342.4 L 158.9 342.4 L 163.4 342.5 L 167.9 342.7 L 172.4 342.9 L 176.9 343.2 L 181.4 343.4 L 185.9 343.8 L 190.4 344.1 L 194.9 344.5 L 199.4 344.9 L 203.9 345.4 L 208.4 345.8 L 212.9 346.3 L 217.4 346.7 L 221.9 347.2 L 226.4 347.6 L 230.8 348.1 L 235.3 348.5 L 239.8 348.9 L 244.3 349.3 L 248.8 349.7 L 253.3 350.0 L 257.8 350.3 L 262.3 350.6 L 266.8 350.9 L 271.3 351.1 L 275.8 351.3 L 280.3 351.5 L 284.8 351.7 L 289.3 351.8 L 293.8 352.0 L 298.3 352.1 L 302.8 352.2 L 307.3 352.2 L 311.8 352.3 L 316.3 352.4 L 320.7 352.4 L 325.2 352.5 L 329.7 352.6 L 334.2 352.6 L 338.7 352.7 L 343.2 352.9 L 347.7 353.0 L 352.2 353.1 L 356.7 353.3 L 361.2 353.6 L 365.7 353.8 L 370.2 354.1 L 374.7 354.5 L 379.2 354.9 L 383.7 355.3 L 388.2 355.8 L 392.7 356.3 L 397.2 356.9 L 401.7 357.5 L 406.2 358.1 L 410.6 358.8 L 415.1 359.6 L 419.6 360.4 L 424.1 361.2 L 428.6 362.1 L 433.1 363.0 L 437.6 363.9 L 442.1 364.8 L 446.6 365.8 L 451.1 366.8 L 455.6 367.7 L 460.1 368.7 L 464.6 369.7 L 469.1 370.6 L 473.6 371.6 L 478.1 372.5 L 482.6 373.4 L 487.1 374.3 L 491.6 375.1 L 496.1 375.8 L 500.5 376.5 L 505.0 377.2 L 509.5 377.8 L 514.0 378.3 L 518.5 378.8 L 523.0 379.2 L 527.5 379.5 L 532.0 379.7 L 536.5 379.9 L 541.0 379.9 L 545.5 379.9 L 550.0 379.8 L 554.5 379.6 L 559.0 379.4 L 563.5 379.0 L 568.0 378.6 L 572.5 378.1 L 577.0 377.5 L 581.5 376.9 L 586.0 376.2 L 590.4 375.4 L 594.9 374.6 L 599.4 373.7 L 603.9 372.8 L 608.4 371.8 L 612.9 370.8 L 617.4 369.8 L 621.9 368.7 L 626.4 367.7 L 630.9 366.6 L 635.4 365.5 L 639.9 364.5 L 644.4 363.4 L 648.9 362.3 L 653.4 361.3 L 657.9 360.3 L 662.4 359.4 L 666.9 358.4 L 671.4 357.5 L 675.9 356.7 L 680.3 355.9 L 684.8 355.1 L 689.3 354.4 L 693.8 353.7 L 698.3 353.1 L 702.8 352.6 L 707.3 352.1 L 711.8 351.6 L 716.3 351.3 L 720.8 350.9 L 725.3 350.6 L 729.8 350.4 L 734.3 350.2 L 738.8 350.0 L 743.3 349.9 L 747.8 349.8 L 752.3 349.7 L 756.8 349.7 L 761.3 349.7 L 765.8 349.7 L 770.2 349.7 L 774.7 349.8 L 779.2 349.8 L 783.7 349.8 L 788.2 349.9 L 792.7 349.9 L 797.2 349.9 L 801.7 349.9 L 806.2 349.9 L 810.7 349.9 L 815.2 349.8 L 819.7 349.7 L 824.2 349.6 L 828.7 349.5 L 833.2 349.4 L 837.7 349.2 L 842.2 349.0 L 846.7 348.8 L 851.2 348.5 L 855.7 348.3 L 860.1 348.0 L 864.6 347.7 L 869.1 347.4 L 873.6 347.1 L 878.1 346.8 L 882.6 346.5 L 887.1 346.2 L 891.6 345.9 L 896.1 345.7 L 900.6 345.4 L 905.1 345.2 L 909.6 345.0 L 914.1 344.8 L 918.6 344.6 L 923.1 344.6 L 927.6 344.5 L 932.1 344.5 L 936.6 344.6 L 941.1 344.7 L 945.6 344.8 L 950.0 345.1 L 954.5 345.4 L 959.0 345.7 L 963.5 346.1 L 968.0 346.6 L 972.5 347.2 L 977.0 347.8 L 981.5 348.5 L 986.0 349.3 L 990.5 350.1 L 995.0 350.9 L 999.5 351.9 L 1004.0 352.8 L 1008.5 353.9 L 1013.0 354.9 L 1017.5 356.0 L 1022.0 357.2 L 1026.5 358.3 L 1031.0 359.5 L 1035.5 360.7 L 1039.9 361.9 L 1044.4 363.1 L 1048.9 364.3 L 1053.4 365.5 L 1057.9 366.6 L 1062.4 367.8 L 1066.9 368.9 L 1071.4 370.0 L 1075.9 371.0 L 1080.4 372.0 L 1084.9 372.9 L 1089.4 373.7 L 1093.9 374.5 L 1098.4 375.3 L 1102.9 375.9 L 1107.4 376.5 L 1111.9 377.0 L 1116.4 377.5 L 1120.9 377.8 L 1125.4 378.1 L 1129.8 378.3 L 1134.3 378.4 L 1138.8 378.5 L 1143.3 378.4 L 1147.8 378.3 L 1152.3 378.1 L 1156.8 377.9 L 1161.3 377.6 L 1165.8 377.2 L 1170.3 376.8 L 1174.8 376.3 L 1179.3 375.7 L 1183.8 375.2 L 1188.3 374.6 L 1192.8 373.9 L 1197.3 373.2 L 1201.8 372.5 L 1206.3 371.8 L 1210.8 371.1 L 1215.3 370.4 L 1219.7 369.7 L 1224.2 369.0 L 1228.7 368.3 L 1233.2 367.6 L 1237.7 366.9 L 1242.2 366.2 L 1246.7 365.6 L 1251.2 365.0 L 1255.7 364.5 L 1260.2 363.9 L 1264.7 363.4 L 1269.2 362.9 L 1273.7 362.5 L 1278.2 362.1 L 1282.7 361.7 L 1287.2 361.4 L 1291.7 361.1 L 1296.2 360.8 L 1300.7 360.6 L 1305.2 360.4 L 1309.6 360.2 L 1314.1 360.0 L 1318.6 359.8 L 1323.1 359.7 L 1327.6 359.5 L 1332.1 359.4 L 1336.6 359.3 L 1341.1 359.1 L 1345.6 359.0 L 1350.1 358.8 L 1354.6 358.6 L 1359.1 358.4 L 1363.6 358.2 L 1368.1 357.9 L 1372.6 357.7 L 1377.1 357.4 L 1381.6 357.0 L 1386.1 356.7 L 1390.6 356.2 L 1395.1 355.8 L 1399.5 355.3 L 1404.0 354.8 L 1408.5 354.3 L 1413.0 353.7 L 1417.5 353.1 L 1422.0 352.4 L 1426.5 351.8 L 1431.0 351.1 L 1435.5 350.3 L 1440.0 349.6" fill="none" stroke="#7aa2ff" stroke-width="1.7" stroke-linejoin="round" stroke-linecap="round" pathLength="1" stroke-dasharray="1 1" stroke-dashoffset="1" filter="url(#glow)"><animate attributeName="stroke-dashoffset" values="1;0" dur="5s" repeatCount="indefinite" calcMode="linear"/></path>
  <circle r="2.7" fill="#eafff9" filter="url(#glow)"><animateMotion dur="5s" repeatCount="indefinite" calcMode="linear" keyPoints="0;1" keyTimes="0;1"><mpath xlink:href="#p4"/></animateMotion></circle>
  <g><rect x="-140" y="98" width="140" height="304" fill="url(#sweep)"/><line x1="0" y1="98" x2="0" y2="402" stroke="#c8fff1" stroke-width="1.1" opacity="0.55"/><animateTransform attributeName="transform" type="translate" values="90,0;1440,0" dur="5s" repeatCount="indefinite" calcMode="linear"/></g>
</g>
<rect x="22" y="98" width="1556" height="304" rx="7" fill="url(#crt)" pointer-events="none"/>
<rect x="22" y="98" width="1556" height="304" rx="7" fill="none" stroke="#1f7563" stroke-width="1"/>
<text x="34" y="137" font-size="12.5" font-weight="700" letter-spacing="0.5" fill="#2ff0c4">CH1</text><text x="34" y="149" font-size="9" letter-spacing="0.5" fill="#3f8f7c">FDS EMG</text>
<text x="1494" y="143" text-anchor="end" font-size="10.5" fill="#2ff0c4">0.51 mV</text>
<text x="34" y="210" font-size="12.5" font-weight="700" letter-spacing="0.5" fill="#5df08a">CH2</text><text x="34" y="222" font-size="9" letter-spacing="0.5" fill="#3f8f7c">EDC EMG</text>
<text x="1494" y="216" text-anchor="end" font-size="10.5" fill="#5df08a">0.38 mV</text>
<text x="34" y="283" font-size="12.5" font-weight="700" letter-spacing="0.5" fill="#41cfe0">CH3</text><text x="34" y="295" font-size="9" letter-spacing="0.5" fill="#3f8f7c">APB EMG</text>
<text x="1494" y="289" text-anchor="end" font-size="10.5" fill="#41cfe0">0.44 mV</text>
<text x="34" y="356" font-size="12.5" font-weight="700" letter-spacing="0.5" fill="#7aa2ff">CH4</text><text x="34" y="368" font-size="9" letter-spacing="0.5" fill="#3f8f7c">POSE VID</text>
<text x="1494" y="362" text-anchor="end" font-size="10.5" fill="#7aa2ff">23 fps</text>
<text x="36" y="392" font-size="10.5" letter-spacing="0.5" fill="#3f8f7c">20 mV/div   500 ms/div   fs 2 kHz   TRIG auto</text>
<line x1="1500" y1="110" x2="1500" y2="390" stroke="#15564a" stroke-width="1" opacity="0.7"/>
<text x="1538" y="132" text-anchor="middle" font-size="9" letter-spacing="1" fill="#3f8f7c">DECODE</text>
<text x="1538" y="146" text-anchor="middle" font-size="8.5" letter-spacing="0.5" fill="#f2b45c">-&gt; GRIP</text>
<g transform="translate(1538,250)" stroke-linecap="round">
  <line x1="0" y1="36" x2="0" y2="16" stroke="#4f9e8b" stroke-width="5"/>
  <rect x="-8" y="8" width="16" height="8" rx="4" fill="#4f9e8b"/>
  <circle cx="0" cy="12" r="3" fill="#f2b45c"/>
  <g transform="rotate(0 0 12)"><line x1="0" y1="12" x2="-13" y2="-14" stroke="#f2b45c" stroke-width="4.5"/><line x1="-13" y1="-14" x2="-20" y2="-30" stroke="#f2b45c" stroke-width="4"/><animateTransform attributeName="transform" type="rotate" values="0 0 12;0 0 12;26 0 12;26 0 12;0 0 12" keyTimes="0;0.42;0.56;0.82;1" dur="5s" repeatCount="indefinite" calcMode="spline" keySplines="0.4 0 0.2 1;0.4 0 0.2 1;0.4 0 0.2 1;0.4 0 0.2 1"/></g>
  <g transform="rotate(0 0 12)"><line x1="0" y1="12" x2="13" y2="-14" stroke="#f2b45c" stroke-width="4.5"/><line x1="13" y1="-14" x2="20" y2="-30" stroke="#f2b45c" stroke-width="4"/><animateTransform attributeName="transform" type="rotate" values="0 0 12;0 0 12;-26 0 12;-26 0 12;0 0 12" keyTimes="0;0.42;0.56;0.82;1" dur="5s" repeatCount="indefinite" calcMode="spline" keySplines="0.4 0 0.2 1;0.4 0 0.2 1;0.4 0 0.2 1;0.4 0 0.2 1"/></g>
</g>
<text x="1538" y="372" text-anchor="middle" font-size="9" letter-spacing="1" fill="#3f8f7c">ACTUATOR</text>
</svg>
