<svg xmlns="http://www.w3.org/2000/svg" xmlns:xlink="http://www.w3.org/1999/xlink" viewBox="0 0 1200 330" width="1200" height="330" role="img" aria-labelledby="ti de" preserveAspectRatio="xMidYMid meet" font-family="ui-monospace, SFMono-Regular, Menlo, 'Courier New', 'Malgun Gothic', monospace">
<title id="ti">Tech stack - probe bank</title>
<desc id="de">An oscilloscope probe bank where each technology is a channel with a mini signal: Python and PyTorch as EMG-style bursts, Go as a square wave, Svelte and TypeScript as a smooth sine, OpenVINO NPU as an INT8 quantization staircase, and SCSS web as a soft sine.</desc>
<defs><linearGradient id="bg" x1="0" y1="0" x2="0" y2="1"><stop offset="0" stop-color="#080f1e"/><stop offset="1" stop-color="#05080f"/></linearGradient><filter id="glow" x="-6%" y="-60%" width="112%" height="220%"><feGaussianBlur stdDeviation="1.15" result="b"/><feMerge><feMergeNode in="b"/><feMergeNode in="SourceGraphic"/></feMerge></filter><pattern id="grid" width="26" height="26" patternUnits="userSpaceOnUse"><path d="M26 0H0V26" fill="none" stroke="#183a63" stroke-width="0.6" opacity="0.4"/></pattern><clipPath id="scr"><rect x="290" y="66" width="760" height="248" rx="4"/></clipPath></defs>
<rect x="0" y="0" width="1200" height="330" rx="16" fill="#03060d"/>
<rect x="5" y="5" width="1190" height="320" rx="13" fill="url(#bg)" stroke="#1c4066" stroke-width="1.2"/>
<text x="26" y="42" font-size="17" font-weight="700" letter-spacing="2" fill="#d8e8ff">PROBE BANK</text>
<text x="176" y="42" font-size="12" letter-spacing="0.5" fill="#6f8fc0">/ tech stack /  기술 스택</text>
<text x="1174" y="42" text-anchor="end" font-size="11" letter-spacing="1" fill="#4d6a99">6 CHANNELS</text>
<rect x="290" y="66" width="760" height="248" rx="4" fill="#060e1d" stroke="#1e4270" stroke-width="0.8"/>
<g clip-path="url(#scr)"><rect x="290" y="66" width="760" height="248" fill="url(#grid)"/><line x1="330" y1="92" x2="1030" y2="92" stroke="#26497a" stroke-width="0.6" stroke-dasharray="2 5" opacity="0.5"/><line x1="330" y1="132" x2="1030" y2="132" stroke="#26497a" stroke-width="0.6" stroke-dasharray="2 5" opacity="0.5"/><line x1="330" y1="172" x2="1030" y2="172" stroke="#26497a" stroke-width="0.6" stroke-dasharray="2 5" opacity="0.5"/><line x1="330" y1="212" x2="1030" y2="212" stroke="#26497a" stroke-width="0.6" stroke-dasharray="2 5" opacity="0.5"/><line x1="330" y1="252" x2="1030" y2="252" stroke="#26497a" stroke-width="0.6" stroke-dasharray="2 5" opacity="0.5"/><line x1="330" y1="292" x2="1030" y2="292" stroke="#26497a" stroke-width="0.6" stroke-dasharray="2 5" opacity="0.5"/><path d="M 340.0 92.4 L 343.4 92.9 L 346.8 93.0 L 350.3 92.1 L 353.7 92.2 L 357.1 92.6 L 360.5 91.8 L 363.9 93.0 L 367.3 92.8 L 370.8 91.3 L 374.2 91.7 L 377.6 93.0 L 381.0 91.6 L 384.4 91.8 L 387.8 91.4 L 391.3 91.9 L 394.7 91.5 L 398.1 92.8 L 401.5 92.7 L 404.9 91.5 L 408.3 91.1 L 411.8 91.7 L 415.2 91.2 L 418.6 91.8 L 422.0 91.8 L 425.4 92.7 L 428.8 93.1 L 432.3 92.8 L 435.7 92.5 L 439.1 90.9 L 442.5 91.5 L 445.9 91.5 L 449.3 92.7 L 452.8 93.8 L 456.2 93.3 L 459.6 93.0 L 463.0 91.5 L 466.4 90.2 L 469.8 90.6 L 473.3 90.1 L 476.7 92.8 L 480.1 94.3 L 483.5 95.8 L 486.9 96.1 L 490.4 93.6 L 493.8 89.0 L 497.2 89.3 L 500.6 87.8 L 504.0 89.9 L 507.4 94.4 L 510.9 96.8 L 514.3 96.8 L 517.7 98.8 L 521.1 90.4 L 524.5 89.6 L 527.9 84.0 L 531.4 86.3 L 534.8 84.5 L 538.2 91.3 L 541.6 100.0 L 545.0 104.3 L 548.4 96.2 L 551.9 89.5 L 555.3 89.3 L 558.7 84.7 L 562.1 79.0 L 565.5 83.2 L 568.9 89.9 L 572.4 100.2 L 575.8 104.4 L 579.2 101.2 L 582.6 91.8 L 586.0 90.5 L 589.4 83.7 L 592.9 79.0 L 596.3 88.6 L 599.7 90.9 L 603.1 99.0 L 606.5 103.5 L 609.9 102.3 L 613.4 95.5 L 616.8 88.2 L 620.2 81.5 L 623.6 83.1 L 627.0 90.0 L 630.5 95.8 L 633.9 97.6 L 637.3 99.1 L 640.7 95.7 L 644.1 94.5 L 647.5 89.3 L 651.0 85.8 L 654.4 87.4 L 657.8 89.2 L 661.2 91.1 L 664.6 92.4 L 668.0 94.0 L 671.5 95.9 L 674.9 94.2 L 678.3 90.3 L 681.7 90.6 L 685.1 90.3 L 688.5 91.0 L 692.0 91.5 L 695.4 93.8 L 698.8 94.2 L 702.2 93.1 L 705.6 93.0 L 709.0 91.5 L 712.5 89.0 L 715.9 91.6 L 719.3 90.6 L 722.7 91.6 L 726.1 93.4 L 729.5 94.9 L 733.0 95.5 L 736.4 93.8 L 739.8 89.5 L 743.2 89.9 L 746.6 87.0 L 750.1 89.3 L 753.5 93.5 L 756.9 97.0 L 760.3 99.1 L 763.7 98.5 L 767.1 98.2 L 770.6 91.1 L 774.0 87.7 L 777.4 82.9 L 780.8 84.9 L 784.2 91.8 L 787.6 95.9 L 791.1 105.0 L 794.5 100.7 L 797.9 100.5 L 801.3 87.2 L 804.7 85.0 L 808.1 81.0 L 811.6 80.2 L 815.0 86.7 L 818.4 102.9 L 821.8 103.3 L 825.2 105.0 L 828.6 98.6 L 832.1 92.2 L 835.5 83.9 L 838.9 79.5 L 842.3 84.9 L 845.7 88.0 L 849.1 94.3 L 852.6 97.9 L 856.0 98.9 L 859.4 94.1 L 862.8 88.0 L 866.2 87.7 L 869.6 87.4 L 873.1 88.2 L 876.5 90.1 L 879.9 93.4 L 883.3 95.4 L 886.7 94.7 L 890.2 94.9 L 893.6 90.5 L 897.0 89.1 L 900.4 89.2 L 903.8 90.7 L 907.2 92.1 L 910.7 93.7 L 914.1 94.1 L 917.5 92.9 L 920.9 92.6 L 924.3 92.9 L 927.7 90.7 L 931.2 91.3 L 934.6 91.8 L 938.0 90.9 L 941.4 92.8 L 944.8 93.1 L 948.2 91.4 L 951.7 91.3 L 955.1 93.1 L 958.5 92.4 L 961.9 92.3 L 965.3 91.4 L 968.7 91.0 L 972.2 92.5 L 975.6 90.9 L 979.0 92.2 L 982.4 92.9 L 985.8 91.0 L 989.2 92.0 L 992.7 91.0 L 996.1 91.7 L 999.5 91.9 L 1002.9 91.5 L 1006.3 91.7 L 1009.7 91.1 L 1013.2 92.3 L 1016.6 91.0 L 1020.0 92.4" fill="none" stroke="#4d9fff" stroke-width="1.6" stroke-linejoin="round" stroke-linecap="round" pathLength="1" stroke-dasharray="1 1" stroke-dashoffset="1" filter="url(#glow)"><animate attributeName="stroke-dashoffset" values="1;0" dur="4.5s" begin="0.00s" repeatCount="indefinite" calcMode="linear"/></path><path d="M 340.0 131.0 L 343.4 130.9 L 346.8 131.2 L 350.3 131.5 L 353.7 131.2 L 357.1 131.1 L 360.5 132.2 L 363.9 131.9 L 367.3 131.2 L 370.8 133.1 L 374.2 131.5 L 377.6 131.1 L 381.0 132.0 L 384.4 132.1 L 387.8 132.7 L 391.3 131.2 L 394.7 130.9 L 398.1 131.8 L 401.5 131.4 L 404.9 131.4 L 408.3 131.6 L 411.8 132.0 L 415.2 131.1 L 418.6 131.4 L 422.0 131.5 L 425.4 132.2 L 428.8 134.3 L 432.3 132.4 L 435.7 129.8 L 439.1 130.0 L 442.5 133.9 L 445.9 135.2 L 449.3 135.2 L 452.8 130.6 L 456.2 126.6 L 459.6 128.1 L 463.0 133.0 L 466.4 138.7 L 469.8 137.0 L 473.3 129.8 L 476.7 123.9 L 480.1 123.8 L 483.5 133.3 L 486.9 141.3 L 490.4 135.0 L 493.8 129.6 L 497.2 121.0 L 500.6 126.6 L 504.0 138.9 L 507.4 140.6 L 510.9 138.8 L 514.3 125.2 L 517.7 119.0 L 521.1 127.2 L 524.5 138.6 L 527.9 142.1 L 531.4 134.2 L 534.8 125.9 L 538.2 121.5 L 541.6 128.3 L 545.0 139.2 L 548.4 137.4 L 551.9 132.7 L 555.3 125.3 L 558.7 125.8 L 562.1 132.6 L 565.5 136.9 L 568.9 136.0 L 572.4 130.9 L 575.8 129.7 L 579.2 128.2 L 582.6 131.2 L 586.0 132.9 L 589.4 133.2 L 592.9 132.1 L 596.3 130.8 L 599.7 130.4 L 603.1 131.2 L 606.5 133.5 L 609.9 132.4 L 613.4 131.2 L 616.8 130.9 L 620.2 130.5 L 623.6 132.3 L 627.0 132.6 L 630.5 132.6 L 633.9 130.3 L 637.3 130.8 L 640.7 130.6 L 644.1 132.6 L 647.5 134.8 L 651.0 132.1 L 654.4 130.4 L 657.8 129.2 L 661.2 130.2 L 664.6 135.8 L 668.0 137.8 L 671.5 131.1 L 674.9 128.6 L 678.3 124.6 L 681.7 130.0 L 685.1 138.1 L 688.5 138.9 L 692.0 134.6 L 695.4 127.2 L 698.8 124.3 L 702.2 131.9 L 705.6 141.8 L 709.0 138.6 L 712.5 129.9 L 715.9 119.6 L 719.3 125.7 L 722.7 135.1 L 726.1 145.0 L 729.5 140.2 L 733.0 126.6 L 736.4 121.0 L 739.8 128.6 L 743.2 138.0 L 746.6 137.6 L 750.1 136.2 L 753.5 130.1 L 756.9 124.7 L 760.3 127.0 L 763.7 132.4 L 767.1 135.5 L 770.6 132.8 L 774.0 129.9 L 777.4 128.8 L 780.8 132.3 L 784.2 133.7 L 787.6 133.9 L 791.1 133.1 L 794.5 132.1 L 797.9 130.5 L 801.3 132.8 L 804.7 132.6 L 808.1 133.5 L 811.6 132.7 L 815.0 132.1 L 818.4 130.6 L 821.8 132.0 L 825.2 132.8 L 828.6 134.0 L 832.1 132.7 L 835.5 130.3 L 838.9 129.3 L 842.3 131.7 L 845.7 135.7 L 849.1 133.7 L 852.6 130.5 L 856.0 125.0 L 859.4 126.9 L 862.8 130.5 L 866.2 138.0 L 869.6 138.1 L 873.1 131.4 L 876.5 124.7 L 879.9 122.0 L 883.3 138.0 L 886.7 141.0 L 890.2 139.9 L 893.6 125.7 L 897.0 119.0 L 900.4 128.7 L 903.8 137.7 L 907.2 143.6 L 910.7 138.1 L 914.1 127.7 L 917.5 124.7 L 920.9 131.2 L 924.3 134.8 L 927.7 142.5 L 931.2 135.9 L 934.6 125.0 L 938.0 126.4 L 941.4 129.6 L 944.8 135.3 L 948.2 137.5 L 951.7 131.8 L 955.1 131.4 L 958.5 130.1 L 961.9 131.7 L 965.3 133.7 L 968.7 134.2 L 972.2 130.7 L 975.6 132.0 L 979.0 131.8 L 982.4 132.3 L 985.8 132.2 L 989.2 132.3 L 992.7 130.9 L 996.1 131.8 L 999.5 131.2 L 1002.9 132.1 L 1006.3 132.1 L 1009.7 132.3 L 1013.2 131.4 L 1016.6 132.0 L 1020.0 131.5" fill="none" stroke="#48b4ff" stroke-width="1.6" stroke-linejoin="round" stroke-linecap="round" pathLength="1" stroke-dasharray="1 1" stroke-dashoffset="1" filter="url(#glow)"><animate attributeName="stroke-dashoffset" values="1;0" dur="4.5s" begin="0.22s" repeatCount="indefinite" calcMode="linear"/></path><path d="M 340.0 161.6 L 343.4 161.6 L 346.8 161.6 L 350.3 161.6 L 353.7 161.6 L 357.1 161.6 L 360.5 161.6 L 363.9 161.6 L 367.3 161.6 L 370.8 161.6 L 374.2 161.6 L 377.6 161.6 L 381.0 161.6 L 384.4 161.6 L 387.8 161.6 L 391.3 161.6 L 394.7 161.6 L 398.1 161.6 L 401.5 161.6 L 404.9 161.6 L 408.3 161.6 L 411.8 161.6 L 415.2 161.6 L 418.6 161.6 L 422.0 161.6 L 425.4 161.6 L 428.8 161.6 L 432.3 161.6 L 435.7 182.4 L 439.1 182.4 L 442.5 182.4 L 445.9 182.4 L 449.3 182.4 L 452.8 182.4 L 456.2 182.4 L 459.6 182.4 L 463.0 182.4 L 466.4 182.4 L 469.8 182.4 L 473.3 182.4 L 476.7 182.4 L 480.1 182.4 L 483.5 182.4 L 486.9 182.4 L 490.4 182.4 L 493.8 182.4 L 497.2 182.4 L 500.6 182.4 L 504.0 182.4 L 507.4 182.4 L 510.9 182.4 L 514.3 182.4 L 517.7 182.4 L 521.1 182.4 L 524.5 182.4 L 527.9 182.4 L 531.4 161.6 L 534.8 161.6 L 538.2 161.6 L 541.6 161.6 L 545.0 161.6 L 548.4 161.6 L 551.9 161.6 L 555.3 161.6 L 558.7 161.6 L 562.1 161.6 L 565.5 161.6 L 568.9 161.6 L 572.4 161.6 L 575.8 161.6 L 579.2 161.6 L 582.6 161.6 L 586.0 161.6 L 589.4 161.6 L 592.9 161.6 L 596.3 161.6 L 599.7 161.6 L 603.1 161.6 L 606.5 161.6 L 609.9 161.6 L 613.4 161.6 L 616.8 161.6 L 620.2 161.6 L 623.6 161.6 L 627.0 182.4 L 630.5 182.4 L 633.9 182.4 L 637.3 182.4 L 640.7 182.4 L 644.1 182.4 L 647.5 182.4 L 651.0 182.4 L 654.4 182.4 L 657.8 182.4 L 661.2 182.4 L 664.6 182.4 L 668.0 182.4 L 671.5 182.4 L 674.9 182.4 L 678.3 182.4 L 681.7 182.4 L 685.1 182.4 L 688.5 182.4 L 692.0 182.4 L 695.4 182.4 L 698.8 182.4 L 702.2 182.4 L 705.6 182.4 L 709.0 182.4 L 712.5 182.4 L 715.9 182.4 L 719.3 182.4 L 722.7 161.6 L 726.1 161.6 L 729.5 161.6 L 733.0 161.6 L 736.4 161.6 L 739.8 161.6 L 743.2 161.6 L 746.6 161.6 L 750.1 161.6 L 753.5 161.6 L 756.9 161.6 L 760.3 161.6 L 763.7 161.6 L 767.1 161.6 L 770.6 161.6 L 774.0 161.6 L 777.4 161.6 L 780.8 161.6 L 784.2 161.6 L 787.6 161.6 L 791.1 161.6 L 794.5 161.6 L 797.9 161.6 L 801.3 161.6 L 804.7 161.6 L 808.1 161.6 L 811.6 161.6 L 815.0 161.6 L 818.4 182.4 L 821.8 182.4 L 825.2 182.4 L 828.6 182.4 L 832.1 182.4 L 835.5 182.4 L 838.9 182.4 L 842.3 182.4 L 845.7 182.4 L 849.1 182.4 L 852.6 182.4 L 856.0 182.4 L 859.4 182.4 L 862.8 182.4 L 866.2 182.4 L 869.6 182.4 L 873.1 182.4 L 876.5 182.4 L 879.9 182.4 L 883.3 182.4 L 886.7 182.4 L 890.2 182.4 L 893.6 182.4 L 897.0 182.4 L 900.4 182.4 L 903.8 182.4 L 907.2 182.4 L 910.7 182.4 L 914.1 161.6 L 917.5 161.6 L 920.9 161.6 L 924.3 161.6 L 927.7 161.6 L 931.2 161.6 L 934.6 161.6 L 938.0 161.6 L 941.4 161.6 L 944.8 161.6 L 948.2 161.6 L 951.7 161.6 L 955.1 161.6 L 958.5 161.6 L 961.9 161.6 L 965.3 161.6 L 968.7 161.6 L 972.2 161.6 L 975.6 161.6 L 979.0 161.6 L 982.4 161.6 L 985.8 161.6 L 989.2 161.6 L 992.7 161.6 L 996.1 161.6 L 999.5 161.6 L 1002.9 161.6 L 1006.3 161.6 L 1009.7 182.4 L 1013.2 182.4 L 1016.6 182.4 L 1020.0 182.4" fill="none" stroke="#34c8f2" stroke-width="1.6" stroke-linejoin="round" stroke-linecap="round" pathLength="1" stroke-dasharray="1 1" stroke-dashoffset="1" filter="url(#glow)"><animate attributeName="stroke-dashoffset" values="1;0" dur="4.5s" begin="0.44s" repeatCount="indefinite" calcMode="linear"/></path><path d="M 340.0 210.4 L 343.4 209.2 L 346.8 208.2 L 350.3 207.2 L 353.7 206.4 L 357.1 205.7 L 360.5 205.1 L 363.9 204.6 L 367.3 204.3 L 370.8 204.0 L 374.2 203.8 L 377.6 203.7 L 381.0 203.7 L 384.4 203.7 L 387.8 203.7 L 391.3 203.7 L 394.7 203.8 L 398.1 203.8 L 401.5 203.9 L 404.9 203.9 L 408.3 203.9 L 411.8 204.0 L 415.2 204.1 L 418.6 204.2 L 422.0 204.4 L 425.4 204.6 L 428.8 204.9 L 432.3 205.3 L 435.7 205.8 L 439.1 206.4 L 442.5 207.2 L 445.9 208.0 L 449.3 208.9 L 452.8 210.0 L 456.2 211.1 L 459.6 212.4 L 463.0 213.6 L 466.4 214.9 L 469.8 216.2 L 473.3 217.5 L 476.7 218.7 L 480.1 219.8 L 483.5 220.8 L 486.9 221.7 L 490.4 222.5 L 493.8 223.0 L 497.2 223.5 L 500.6 223.7 L 504.0 223.7 L 507.4 223.6 L 510.9 223.4 L 514.3 222.9 L 517.7 222.4 L 521.1 221.7 L 524.5 220.9 L 527.9 220.1 L 531.4 219.3 L 534.8 218.4 L 538.2 217.5 L 541.6 216.6 L 545.0 215.8 L 548.4 215.0 L 551.9 214.2 L 555.3 213.5 L 558.7 212.9 L 562.1 212.3 L 565.5 211.7 L 568.9 211.1 L 572.4 210.6 L 575.8 210.1 L 579.2 209.6 L 582.6 209.0 L 586.0 208.4 L 589.4 207.8 L 592.9 207.2 L 596.3 206.5 L 599.7 205.8 L 603.1 205.1 L 606.5 204.4 L 609.9 203.7 L 613.4 203.0 L 616.8 202.4 L 620.2 201.9 L 623.6 201.4 L 627.0 201.1 L 630.5 200.8 L 633.9 200.8 L 637.3 200.9 L 640.7 201.1 L 644.1 201.5 L 647.5 202.1 L 651.0 202.9 L 654.4 203.8 L 657.8 204.8 L 661.2 206.0 L 664.6 207.2 L 668.0 208.6 L 671.5 209.9 L 674.9 211.2 L 678.3 212.6 L 681.7 213.9 L 685.1 215.1 L 688.5 216.2 L 692.0 217.2 L 695.4 218.1 L 698.8 218.9 L 702.2 219.5 L 705.6 220.0 L 709.0 220.4 L 712.5 220.7 L 715.9 220.8 L 719.3 220.9 L 722.7 220.9 L 726.1 220.8 L 729.5 220.7 L 733.0 220.5 L 736.4 220.4 L 739.8 220.2 L 743.2 220.0 L 746.6 219.9 L 750.1 219.7 L 753.5 219.5 L 756.9 219.3 L 760.3 219.1 L 763.7 218.9 L 767.1 218.7 L 770.6 218.3 L 774.0 217.9 L 777.4 217.5 L 780.8 216.9 L 784.2 216.2 L 787.6 215.5 L 791.1 214.6 L 794.5 213.6 L 797.9 212.6 L 801.3 211.4 L 804.7 210.2 L 808.1 209.0 L 811.6 207.8 L 815.0 206.5 L 818.4 205.3 L 821.8 204.2 L 825.2 203.2 L 828.6 202.3 L 832.1 201.5 L 835.5 200.9 L 838.9 200.4 L 842.3 200.1 L 845.7 200.0 L 849.1 200.1 L 852.6 200.4 L 856.0 200.8 L 859.4 201.4 L 862.8 202.1 L 866.2 202.9 L 869.6 203.7 L 873.1 204.7 L 876.5 205.6 L 879.9 206.6 L 883.3 207.6 L 886.7 208.6 L 890.2 209.5 L 893.6 210.3 L 897.0 211.1 L 900.4 211.9 L 903.8 212.5 L 907.2 213.2 L 910.7 213.7 L 914.1 214.3 L 917.5 214.8 L 920.9 215.3 L 924.3 215.7 L 927.7 216.2 L 931.2 216.7 L 934.6 217.3 L 938.0 217.8 L 941.4 218.4 L 944.8 219.0 L 948.2 219.6 L 951.7 220.2 L 955.1 220.7 L 958.5 221.3 L 961.9 221.8 L 965.3 222.2 L 968.7 222.5 L 972.2 222.7 L 975.6 222.8 L 979.0 222.7 L 982.4 222.5 L 985.8 222.1 L 989.2 221.6 L 992.7 220.9 L 996.1 220.0 L 999.5 219.0 L 1002.9 217.9 L 1006.3 216.7 L 1009.7 215.4 L 1013.2 214.0 L 1016.6 212.7 L 1020.0 211.3" fill="none" stroke="#6f92cf" stroke-width="1.6" stroke-linejoin="round" stroke-linecap="round" pathLength="1" stroke-dasharray="1 1" stroke-dashoffset="1" filter="url(#glow)"><animate attributeName="stroke-dashoffset" values="1;0" dur="4.5s" begin="0.66s" repeatCount="indefinite" calcMode="linear"/></path><path d="M 340.0 263.1 L 343.4 263.1 L 346.8 263.1 L 350.3 263.1 L 353.7 263.1 L 357.1 263.1 L 360.5 263.1 L 363.9 263.1 L 367.3 263.1 L 370.8 263.1 L 374.2 263.1 L 377.6 263.1 L 381.0 263.1 L 384.4 263.1 L 387.8 263.1 L 391.3 259.4 L 394.7 259.4 L 398.1 259.4 L 401.5 259.4 L 404.9 259.4 L 408.3 259.4 L 411.8 259.4 L 415.2 259.4 L 418.6 259.4 L 422.0 259.4 L 425.4 259.4 L 428.8 259.4 L 432.3 259.4 L 435.7 259.4 L 439.1 255.7 L 442.5 255.7 L 445.9 255.7 L 449.3 255.7 L 452.8 255.7 L 456.2 255.7 L 459.6 255.7 L 463.0 255.7 L 466.4 255.7 L 469.8 255.7 L 473.3 255.7 L 476.7 255.7 L 480.1 255.7 L 483.5 255.7 L 486.9 252.0 L 490.4 252.0 L 493.8 252.0 L 497.2 252.0 L 500.6 252.0 L 504.0 252.0 L 507.4 252.0 L 510.9 252.0 L 514.3 252.0 L 517.7 252.0 L 521.1 252.0 L 524.5 252.0 L 527.9 252.0 L 531.4 252.0 L 534.8 248.3 L 538.2 248.3 L 541.6 248.3 L 545.0 248.3 L 548.4 248.3 L 551.9 248.3 L 555.3 248.3 L 558.7 248.3 L 562.1 248.3 L 565.5 248.3 L 568.9 248.3 L 572.4 248.3 L 575.8 248.3 L 579.2 248.3 L 582.6 248.3 L 586.0 244.6 L 589.4 244.6 L 592.9 244.6 L 596.3 244.6 L 599.7 244.6 L 603.1 244.6 L 606.5 244.6 L 609.9 244.6 L 613.4 244.6 L 616.8 244.6 L 620.2 244.6 L 623.6 244.6 L 627.0 244.6 L 630.5 244.6 L 633.9 240.9 L 637.3 240.9 L 640.7 240.9 L 644.1 240.9 L 647.5 240.9 L 651.0 240.9 L 654.4 240.9 L 657.8 240.9 L 661.2 240.9 L 664.6 240.9 L 668.0 240.9 L 671.5 240.9 L 674.9 240.9 L 678.3 240.9 L 681.7 263.1 L 685.1 263.1 L 688.5 263.1 L 692.0 263.1 L 695.4 263.1 L 698.8 263.1 L 702.2 263.1 L 705.6 263.1 L 709.0 263.1 L 712.5 263.1 L 715.9 263.1 L 719.3 263.1 L 722.7 263.1 L 726.1 263.1 L 729.5 259.4 L 733.0 259.4 L 736.4 259.4 L 739.8 259.4 L 743.2 259.4 L 746.6 259.4 L 750.1 259.4 L 753.5 259.4 L 756.9 259.4 L 760.3 259.4 L 763.7 259.4 L 767.1 259.4 L 770.6 259.4 L 774.0 259.4 L 777.4 255.7 L 780.8 255.7 L 784.2 255.7 L 787.6 255.7 L 791.1 255.7 L 794.5 255.7 L 797.9 255.7 L 801.3 255.7 L 804.7 255.7 L 808.1 255.7 L 811.6 255.7 L 815.0 255.7 L 818.4 255.7 L 821.8 255.7 L 825.2 255.7 L 828.6 252.0 L 832.1 252.0 L 835.5 252.0 L 838.9 252.0 L 842.3 252.0 L 845.7 252.0 L 849.1 252.0 L 852.6 252.0 L 856.0 252.0 L 859.4 252.0 L 862.8 252.0 L 866.2 252.0 L 869.6 252.0 L 873.1 252.0 L 876.5 248.3 L 879.9 248.3 L 883.3 248.3 L 886.7 248.3 L 890.2 248.3 L 893.6 248.3 L 897.0 248.3 L 900.4 248.3 L 903.8 248.3 L 907.2 248.3 L 910.7 248.3 L 914.1 248.3 L 917.5 248.3 L 920.9 248.3 L 924.3 244.6 L 927.7 244.6 L 931.2 244.6 L 934.6 244.6 L 938.0 244.6 L 941.4 244.6 L 944.8 244.6 L 948.2 244.6 L 951.7 244.6 L 955.1 244.6 L 958.5 244.6 L 961.9 244.6 L 965.3 244.6 L 968.7 244.6 L 972.2 240.9 L 975.6 240.9 L 979.0 240.9 L 982.4 240.9 L 985.8 240.9 L 989.2 240.9 L 992.7 240.9 L 996.1 240.9 L 999.5 240.9 L 1002.9 240.9 L 1006.3 240.9 L 1009.7 240.9 L 1013.2 240.9 L 1016.6 240.9 L 1020.0 263.1" fill="none" stroke="#f2b45c" stroke-width="1.6" stroke-linejoin="round" stroke-linecap="round" pathLength="1" stroke-dasharray="1 1" stroke-dashoffset="1" filter="url(#glow)"><animate attributeName="stroke-dashoffset" values="1;0" dur="4.5s" begin="0.88s" repeatCount="indefinite" calcMode="linear"/></path><path d="M 340.0 290.4 L 343.4 289.5 L 346.8 288.7 L 350.3 288.0 L 353.7 287.3 L 357.1 286.6 L 360.5 286.1 L 363.9 285.6 L 367.3 285.2 L 370.8 284.8 L 374.2 284.5 L 377.6 284.3 L 381.0 284.1 L 384.4 283.9 L 387.8 283.8 L 391.3 283.7 L 394.7 283.7 L 398.1 283.7 L 401.5 283.7 L 404.9 283.7 L 408.3 283.7 L 411.8 283.8 L 415.2 283.8 L 418.6 283.8 L 422.0 283.8 L 425.4 283.9 L 428.8 283.9 L 432.3 283.9 L 435.7 284.0 L 439.1 284.0 L 442.5 284.1 L 445.9 284.2 L 449.3 284.3 L 452.8 284.4 L 456.2 284.6 L 459.6 284.8 L 463.0 285.1 L 466.4 285.4 L 469.8 285.7 L 473.3 286.2 L 476.7 286.7 L 480.1 287.2 L 483.5 287.8 L 486.9 288.5 L 490.4 289.2 L 493.8 290.0 L 497.2 290.8 L 500.6 291.7 L 504.0 292.6 L 507.4 293.5 L 510.9 294.5 L 514.3 295.4 L 517.7 296.4 L 521.1 297.3 L 524.5 298.2 L 527.9 299.1 L 531.4 299.9 L 534.8 300.6 L 538.2 301.3 L 541.6 301.9 L 545.0 302.5 L 548.4 302.9 L 551.9 303.3 L 555.3 303.5 L 558.7 303.7 L 562.1 303.7 L 565.5 303.7 L 568.9 303.6 L 572.4 303.4 L 575.8 303.1 L 579.2 302.8 L 582.6 302.3 L 586.0 301.8 L 589.4 301.3 L 592.9 300.7 L 596.3 300.1 L 599.7 299.5 L 603.1 298.8 L 606.5 298.2 L 609.9 297.5 L 613.4 296.9 L 616.8 296.3 L 620.2 295.7 L 623.6 295.1 L 627.0 294.5 L 630.5 294.0 L 633.9 293.5 L 637.3 293.0 L 640.7 292.5 L 644.1 292.1 L 647.5 291.7 L 651.0 291.3 L 654.4 290.9 L 657.8 290.5 L 661.2 290.1 L 664.6 289.7 L 668.0 289.3 L 671.5 288.9 L 674.9 288.5 L 678.3 288.1 L 681.7 287.6 L 685.1 287.1 L 688.5 286.7 L 692.0 286.2 L 695.4 285.6 L 698.8 285.1 L 702.2 284.6 L 705.6 284.1 L 709.0 283.6 L 712.5 283.1 L 715.9 282.6 L 719.3 282.2 L 722.7 281.8 L 726.1 281.5 L 729.5 281.2 L 733.0 281.0 L 736.4 280.8 L 739.8 280.8 L 743.2 280.8 L 746.6 280.9 L 750.1 281.1 L 753.5 281.4 L 756.9 281.8 L 760.3 282.3 L 763.7 282.8 L 767.1 283.5 L 770.6 284.2 L 774.0 285.0 L 777.4 285.8 L 780.8 286.7 L 784.2 287.7 L 787.6 288.6 L 791.1 289.6 L 794.5 290.6 L 797.9 291.6 L 801.3 292.6 L 804.7 293.5 L 808.1 294.5 L 811.6 295.3 L 815.0 296.1 L 818.4 296.9 L 821.8 297.6 L 825.2 298.2 L 828.6 298.8 L 832.1 299.3 L 835.5 299.7 L 838.9 300.1 L 842.3 300.4 L 845.7 300.6 L 849.1 300.7 L 852.6 300.8 L 856.0 300.9 L 859.4 300.9 L 862.8 300.9 L 866.2 300.8 L 869.6 300.7 L 873.1 300.6 L 876.5 300.5 L 879.9 300.4 L 883.3 300.3 L 886.7 300.1 L 890.2 300.0 L 893.6 299.9 L 897.0 299.8 L 900.4 299.6 L 903.8 299.5 L 907.2 299.4 L 910.7 299.3 L 914.1 299.1 L 917.5 298.9 L 920.9 298.7 L 924.3 298.5 L 927.7 298.3 L 931.2 298.0 L 934.6 297.7 L 938.0 297.3 L 941.4 296.8 L 944.8 296.4 L 948.2 295.8 L 951.7 295.2 L 955.1 294.6 L 958.5 293.9 L 961.9 293.1 L 965.3 292.3 L 968.7 291.5 L 972.2 290.6 L 975.6 289.7 L 979.0 288.8 L 982.4 287.9 L 985.8 287.0 L 989.2 286.1 L 992.7 285.3 L 996.1 284.4 L 999.5 283.7 L 1002.9 282.9 L 1006.3 282.3 L 1009.7 281.7 L 1013.2 281.2 L 1016.6 280.8 L 1020.0 280.4" fill="none" stroke="#9d8cff" stroke-width="1.6" stroke-linejoin="round" stroke-linecap="round" pathLength="1" stroke-dasharray="1 1" stroke-dashoffset="1" filter="url(#glow)"><animate attributeName="stroke-dashoffset" values="1;0" dur="4.5s" begin="1.10s" repeatCount="indefinite" calcMode="linear"/></path></g>
<rect x="26" y="82" width="36" height="20" rx="3" fill="#0b1d34" stroke="#4d9fff" stroke-width="0.9"/><text x="44" y="96" text-anchor="middle" font-size="11" font-weight="700" fill="#4d9fff">PY</text><text x="78" y="93" font-size="14.5" font-weight="700" fill="#d8e8ff">Python</text><text x="78" y="106" font-size="9" letter-spacing="0.3" fill="#4d6a99">signal / ML</text><text x="1174" y="96" text-anchor="end" font-size="10.5" letter-spacing="0.5" fill="#4d9fff">burst</text>
<rect x="26" y="122" width="36" height="20" rx="3" fill="#0b1d34" stroke="#48b4ff" stroke-width="0.9"/><text x="44" y="136" text-anchor="middle" font-size="11" font-weight="700" fill="#48b4ff">PT</text><text x="78" y="133" font-size="14.5" font-weight="700" fill="#d8e8ff">PyTorch</text><text x="78" y="146" font-size="9" letter-spacing="0.3" fill="#4d6a99">deep learning</text><text x="1174" y="136" text-anchor="end" font-size="10.5" letter-spacing="0.5" fill="#48b4ff">dense</text>
<rect x="26" y="162" width="36" height="20" rx="3" fill="#0b1d34" stroke="#34c8f2" stroke-width="0.9"/><text x="44" y="176" text-anchor="middle" font-size="11" font-weight="700" fill="#34c8f2">GO</text><text x="78" y="173" font-size="14.5" font-weight="700" fill="#d8e8ff">Go</text><text x="78" y="186" font-size="9" letter-spacing="0.3" fill="#4d6a99">systems / desktop</text><text x="1174" y="176" text-anchor="end" font-size="10.5" letter-spacing="0.5" fill="#34c8f2">square</text>
<rect x="26" y="202" width="36" height="20" rx="3" fill="#0b1d34" stroke="#6f92cf" stroke-width="0.9"/><text x="44" y="216" text-anchor="middle" font-size="11" font-weight="700" fill="#6f92cf">TS</text><text x="78" y="213" font-size="14.5" font-weight="700" fill="#d8e8ff">Svelte + TS</text><text x="78" y="226" font-size="9" letter-spacing="0.3" fill="#4d6a99">reactive UI</text><text x="1174" y="216" text-anchor="end" font-size="10.5" letter-spacing="0.5" fill="#6f92cf">sine</text>
<rect x="26" y="242" width="36" height="20" rx="3" fill="#0b1d34" stroke="#f2b45c" stroke-width="0.9"/><text x="44" y="256" text-anchor="middle" font-size="11" font-weight="700" fill="#f2b45c">AI</text><text x="78" y="253" font-size="14.5" font-weight="700" fill="#d8e8ff">OpenVINO / NPU</text><text x="78" y="266" font-size="9" letter-spacing="0.3" fill="#4d6a99">edge inference</text><text x="1174" y="256" text-anchor="end" font-size="10.5" letter-spacing="0.5" fill="#f2b45c">INT8</text>
<rect x="26" y="282" width="36" height="20" rx="3" fill="#0b1d34" stroke="#9d8cff" stroke-width="0.9"/><text x="44" y="296" text-anchor="middle" font-size="11" font-weight="700" fill="#9d8cff">WEB</text><text x="78" y="293" font-size="14.5" font-weight="700" fill="#d8e8ff">SCSS / Web</text><text x="78" y="306" font-size="9" letter-spacing="0.3" fill="#4d6a99">frontend</text><text x="1174" y="296" text-anchor="end" font-size="10.5" letter-spacing="0.5" fill="#9d8cff">sine</text>
</svg>
