<svg xmlns="http://www.w3.org/2000/svg" xmlns:xlink="http://www.w3.org/1999/xlink" viewBox="0 0 1200 330" width="1200" height="330" role="img" aria-labelledby="ti de" preserveAspectRatio="xMidYMid meet" font-family="ui-monospace, SFMono-Regular, Menlo, 'Courier New', 'Malgun Gothic', monospace">
<title id="ti">Tech stack - probe bank</title>
<desc id="de">A probe bank listing the stack as oscilloscope channels, each with a mini signal that encodes its character (Go a square wave, OpenVINO NPU an INT8 staircase, and so on) and a usage tag. Python is the main language.</desc>
<defs><linearGradient id="bg" x1="0" y1="0" x2="0" y2="1"><stop offset="0" stop-color="#080f1e"/><stop offset="1" stop-color="#05080f"/></linearGradient><filter id="glow" x="-6%" y="-60%" width="112%" height="220%"><feGaussianBlur stdDeviation="1.15" result="b"/><feMerge><feMergeNode in="b"/><feMergeNode in="SourceGraphic"/></feMerge></filter><pattern id="grid" width="26" height="26" patternUnits="userSpaceOnUse"><path d="M26 0H0V26" fill="none" stroke="#183a63" stroke-width="0.6" opacity="0.4"/></pattern><clipPath id="scr"><rect x="300" y="66" width="676" height="248" rx="4"/></clipPath></defs>
<rect x="0" y="0" width="1200" height="330" rx="16" fill="#03060d"/>
<rect x="5" y="5" width="1190" height="320" rx="13" fill="url(#bg)" stroke="#1c4066" stroke-width="1.2"/>
<text x="26" y="40" font-size="17" font-weight="700" letter-spacing="2" fill="#d8e8ff">PROBE BANK</text>
<text x="176" y="40" font-size="12" letter-spacing="0.5" fill="#6f8fc0">/ stack</text>
<text x="1092" y="40" text-anchor="end" font-size="11" letter-spacing="1" fill="#4d6a99">MAIN</text><text x="1174" y="40" text-anchor="end" font-size="12" font-weight="700" letter-spacing="0.5" fill="#f2b45c">Python</text>
<text x="638" y="60" text-anchor="middle" font-size="8.5" letter-spacing="1.5" fill="#4d6a99">SIGNAL</text><text x="1120" y="60" text-anchor="middle" font-size="8.5" letter-spacing="1.5" fill="#4d6a99">USAGE</text>
<rect x="300" y="66" width="676" height="248" rx="4" fill="#060e1d" stroke="#1e4270" stroke-width="0.8"/>
<g clip-path="url(#scr)"><rect x="300" y="66" width="676" height="248" fill="url(#grid)"/><line x1="340" y1="92" x2="966" y2="92" stroke="#26497a" stroke-width="0.6" stroke-dasharray="2 5" opacity="0.5"/><line x1="340" y1="132" x2="966" y2="132" stroke="#26497a" stroke-width="0.6" stroke-dasharray="2 5" opacity="0.5"/><line x1="340" y1="172" x2="966" y2="172" stroke="#26497a" stroke-width="0.6" stroke-dasharray="2 5" opacity="0.5"/><line x1="340" y1="212" x2="966" y2="212" stroke="#26497a" stroke-width="0.6" stroke-dasharray="2 5" opacity="0.5"/><line x1="340" y1="252" x2="966" y2="252" stroke="#26497a" stroke-width="0.6" stroke-dasharray="2 5" opacity="0.5"/><line x1="340" y1="292" x2="966" y2="292" stroke="#26497a" stroke-width="0.6" stroke-dasharray="2 5" opacity="0.5"/><path d="M 340.0 92.4 L 343.1 92.9 L 346.3 93.0 L 349.4 92.1 L 352.6 92.2 L 355.7 92.6 L 358.9 91.8 L 362.0 93.0 L 365.2 92.8 L 368.3 91.3 L 371.5 91.7 L 374.6 93.0 L 377.7 91.6 L 380.9 91.8 L 384.0 91.4 L 387.2 91.9 L 390.3 91.5 L 393.5 92.8 L 396.6 92.7 L 399.8 91.6 L 402.9 91.1 L 406.1 91.7 L 409.2 91.2 L 412.4 91.8 L 415.5 91.8 L 418.6 92.6 L 421.8 93.1 L 424.9 92.8 L 428.1 92.5 L 431.2 90.9 L 434.4 91.6 L 437.5 91.4 L 440.7 92.7 L 443.8 93.7 L 447.0 93.2 L 450.1 93.0 L 453.2 91.6 L 456.4 90.3 L 459.5 90.7 L 462.7 90.2 L 465.8 92.8 L 469.0 94.1 L 472.1 95.6 L 475.3 95.9 L 478.4 93.6 L 481.6 89.2 L 484.7 89.5 L 487.8 88.2 L 491.0 90.1 L 494.1 94.3 L 497.3 96.4 L 500.4 96.3 L 503.6 98.3 L 506.7 90.4 L 509.9 89.8 L 513.0 84.6 L 516.2 86.8 L 519.3 85.0 L 522.5 91.3 L 525.6 99.4 L 528.7 103.4 L 531.9 95.9 L 535.0 89.7 L 538.2 89.5 L 541.3 85.3 L 544.5 80.0 L 547.6 83.9 L 550.8 90.0 L 553.9 99.5 L 557.1 103.4 L 560.2 100.4 L 563.3 91.8 L 566.5 90.6 L 569.6 84.3 L 572.8 80.0 L 575.9 88.8 L 579.1 90.9 L 582.2 98.4 L 585.4 102.6 L 588.5 101.5 L 591.7 95.3 L 594.8 88.4 L 597.9 82.3 L 601.1 83.7 L 604.2 90.2 L 607.4 95.5 L 610.5 97.3 L 613.7 98.5 L 616.8 95.4 L 620.0 94.3 L 623.1 89.5 L 626.3 86.2 L 629.4 87.8 L 632.6 89.4 L 635.7 91.1 L 638.8 92.3 L 642.0 93.8 L 645.1 95.7 L 648.3 94.1 L 651.4 90.4 L 654.6 90.8 L 657.7 90.5 L 660.9 91.1 L 664.0 91.5 L 667.2 93.8 L 670.3 94.0 L 673.4 93.0 L 676.6 92.9 L 679.7 91.5 L 682.9 89.2 L 686.0 91.7 L 689.2 90.7 L 692.3 91.7 L 695.5 93.4 L 698.6 94.7 L 701.8 95.3 L 704.9 93.7 L 708.1 89.7 L 711.2 90.1 L 714.3 87.4 L 717.5 89.6 L 720.6 93.4 L 723.8 96.7 L 726.9 98.6 L 730.1 98.0 L 733.2 97.8 L 736.4 91.1 L 739.5 88.0 L 742.7 83.6 L 745.8 85.4 L 748.9 91.8 L 752.1 95.6 L 755.2 104.0 L 758.4 100.1 L 761.5 99.8 L 764.7 87.5 L 767.8 85.5 L 771.0 81.9 L 774.1 81.1 L 777.3 87.1 L 780.4 102.1 L 783.5 102.5 L 786.7 104.0 L 789.8 98.1 L 793.0 92.3 L 796.1 84.6 L 799.3 80.4 L 802.4 85.4 L 805.6 88.2 L 808.7 94.1 L 811.9 97.4 L 815.0 98.3 L 818.2 94.0 L 821.3 88.3 L 824.4 88.0 L 827.6 87.9 L 830.7 88.6 L 833.9 90.2 L 837.0 93.3 L 840.2 95.1 L 843.3 94.4 L 846.5 94.7 L 849.6 90.6 L 852.8 89.3 L 855.9 89.4 L 859.0 90.8 L 862.2 92.1 L 865.3 93.6 L 868.5 94.0 L 871.6 92.8 L 874.8 92.5 L 877.9 92.9 L 881.1 90.7 L 884.2 91.3 L 887.4 91.8 L 890.5 90.9 L 893.6 92.8 L 896.8 93.1 L 899.9 91.4 L 903.1 91.3 L 906.2 93.1 L 909.4 92.4 L 912.5 92.3 L 915.7 91.4 L 918.8 91.0 L 922.0 92.5 L 925.1 90.9 L 928.3 92.2 L 931.4 92.9 L 934.5 91.0 L 937.7 92.0 L 940.8 91.0 L 944.0 91.7 L 947.1 91.9 L 950.3 91.5 L 953.4 91.7 L 956.6 91.1 L 959.7 92.3 L 962.9 91.0 L 966.0 92.4" fill="none" stroke="#4d9fff" stroke-width="1.6" stroke-linejoin="round" stroke-linecap="round" pathLength="1" stroke-dasharray="1 1" stroke-dashoffset="1" filter="url(#glow)"><animate attributeName="stroke-dashoffset" values="1;0" dur="4.5s" begin="0.00s" repeatCount="indefinite" calcMode="linear"/></path><path d="M 340.0 131.0 L 343.1 130.9 L 346.3 131.2 L 349.4 131.5 L 352.6 131.2 L 355.7 131.1 L 358.9 132.2 L 362.0 131.9 L 365.2 131.2 L 368.3 133.1 L 371.5 131.6 L 374.6 131.1 L 377.7 132.0 L 380.9 132.1 L 384.0 132.7 L 387.2 131.2 L 390.3 130.9 L 393.5 131.8 L 396.6 131.4 L 399.8 131.4 L 402.9 131.6 L 406.1 132.0 L 409.2 131.1 L 412.4 131.5 L 415.5 131.5 L 418.6 132.1 L 421.8 134.2 L 424.9 132.4 L 428.1 130.0 L 431.2 130.2 L 434.4 133.8 L 437.5 135.0 L 440.7 134.9 L 443.8 130.7 L 447.0 127.1 L 450.1 128.5 L 453.2 133.0 L 456.4 138.2 L 459.5 136.7 L 462.7 129.9 L 465.8 124.5 L 469.0 124.4 L 472.1 133.2 L 475.3 140.7 L 478.4 134.7 L 481.6 129.7 L 484.7 121.8 L 487.8 127.0 L 491.0 138.4 L 494.1 139.9 L 497.3 138.2 L 500.4 125.7 L 503.6 120.0 L 506.7 127.6 L 509.9 138.0 L 513.0 141.3 L 516.2 134.0 L 519.3 126.3 L 522.5 122.4 L 525.6 128.5 L 528.7 138.6 L 531.9 137.0 L 535.0 132.6 L 538.2 125.7 L 541.3 126.3 L 544.5 132.6 L 547.6 136.5 L 550.8 135.6 L 553.9 131.0 L 557.1 129.9 L 560.2 128.4 L 563.3 131.2 L 566.5 132.8 L 569.6 133.1 L 572.8 132.2 L 575.9 130.8 L 579.1 130.4 L 582.2 131.2 L 585.4 133.5 L 588.5 132.3 L 591.7 131.2 L 594.8 130.9 L 597.9 130.5 L 601.1 132.3 L 604.2 132.5 L 607.4 132.5 L 610.5 130.4 L 613.7 130.9 L 616.8 130.7 L 620.0 132.5 L 623.1 134.7 L 626.3 132.0 L 629.4 130.5 L 632.6 129.4 L 635.7 130.3 L 638.8 135.5 L 642.0 137.3 L 645.1 131.1 L 648.3 128.8 L 651.4 125.1 L 654.6 130.1 L 657.7 137.7 L 660.9 138.3 L 664.0 134.5 L 667.2 127.7 L 670.3 125.0 L 673.4 131.9 L 676.6 141.2 L 679.7 138.2 L 682.9 130.1 L 686.0 120.5 L 689.2 126.1 L 692.3 134.9 L 695.5 144.0 L 698.6 139.6 L 701.8 127.0 L 704.9 121.9 L 708.1 128.8 L 711.2 137.6 L 714.3 137.2 L 717.5 136.0 L 720.6 130.3 L 723.8 125.2 L 726.9 127.3 L 730.1 132.4 L 733.2 135.2 L 736.4 132.7 L 739.5 130.1 L 742.7 129.0 L 745.8 132.4 L 748.9 133.6 L 752.1 133.8 L 755.2 133.1 L 758.4 132.1 L 761.5 130.5 L 764.7 132.8 L 767.8 132.6 L 771.0 133.5 L 774.1 132.7 L 777.3 132.2 L 780.4 130.7 L 783.5 132.0 L 786.7 132.7 L 789.8 133.8 L 793.0 132.7 L 796.1 130.4 L 799.3 129.6 L 802.4 131.7 L 805.6 135.4 L 808.7 133.5 L 811.9 130.6 L 815.0 125.5 L 818.2 127.4 L 821.3 130.6 L 824.4 137.6 L 827.6 137.7 L 830.7 131.4 L 833.9 125.3 L 837.0 122.7 L 840.2 137.5 L 843.3 140.3 L 846.5 139.3 L 849.6 126.1 L 852.8 120.0 L 855.9 128.9 L 859.0 137.3 L 862.2 142.7 L 865.3 137.7 L 868.5 128.1 L 871.6 125.3 L 874.8 131.3 L 877.9 134.7 L 881.1 141.7 L 884.2 135.6 L 887.4 125.5 L 890.5 126.9 L 893.6 129.7 L 896.8 135.0 L 899.9 137.1 L 903.1 131.8 L 906.2 131.5 L 909.4 130.3 L 912.5 131.7 L 915.7 133.6 L 918.8 134.1 L 922.0 130.8 L 925.1 132.0 L 928.3 131.8 L 931.4 132.3 L 934.5 132.1 L 937.7 132.2 L 940.8 130.9 L 944.0 131.8 L 947.1 131.3 L 950.3 132.1 L 953.4 132.1 L 956.6 132.3 L 959.7 131.4 L 962.9 132.0 L 966.0 131.5" fill="none" stroke="#48b4ff" stroke-width="1.6" stroke-linejoin="round" stroke-linecap="round" pathLength="1" stroke-dasharray="1 1" stroke-dashoffset="1" filter="url(#glow)"><animate attributeName="stroke-dashoffset" values="1;0" dur="4.5s" begin="0.22s" repeatCount="indefinite" calcMode="linear"/></path><path d="M 340.0 162.4 L 343.1 162.4 L 346.3 162.4 L 349.4 162.4 L 352.6 162.4 L 355.7 162.4 L 358.9 162.4 L 362.0 162.4 L 365.2 162.4 L 368.3 162.4 L 371.5 162.4 L 374.6 162.4 L 377.7 162.4 L 380.9 162.4 L 384.0 162.4 L 387.2 162.4 L 390.3 162.4 L 393.5 162.4 L 396.6 162.4 L 399.8 162.4 L 402.9 162.4 L 406.1 162.4 L 409.2 162.4 L 412.4 162.4 L 415.5 162.4 L 418.6 162.4 L 421.8 162.4 L 424.9 162.4 L 428.1 181.6 L 431.2 181.6 L 434.4 181.6 L 437.5 181.6 L 440.7 181.6 L 443.8 181.6 L 447.0 181.6 L 450.1 181.6 L 453.2 181.6 L 456.4 181.6 L 459.5 181.6 L 462.7 181.6 L 465.8 181.6 L 469.0 181.6 L 472.1 181.6 L 475.3 181.6 L 478.4 181.6 L 481.6 181.6 L 484.7 181.6 L 487.8 181.6 L 491.0 181.6 L 494.1 181.6 L 497.3 181.6 L 500.4 181.6 L 503.6 181.6 L 506.7 181.6 L 509.9 181.6 L 513.0 181.6 L 516.2 162.4 L 519.3 162.4 L 522.5 162.4 L 525.6 162.4 L 528.7 162.4 L 531.9 162.4 L 535.0 162.4 L 538.2 162.4 L 541.3 162.4 L 544.5 162.4 L 547.6 162.4 L 550.8 162.4 L 553.9 162.4 L 557.1 162.4 L 560.2 162.4 L 563.3 162.4 L 566.5 162.4 L 569.6 162.4 L 572.8 162.4 L 575.9 162.4 L 579.1 162.4 L 582.2 162.4 L 585.4 162.4 L 588.5 162.4 L 591.7 162.4 L 594.8 162.4 L 597.9 162.4 L 601.1 162.4 L 604.2 181.6 L 607.4 181.6 L 610.5 181.6 L 613.7 181.6 L 616.8 181.6 L 620.0 181.6 L 623.1 181.6 L 626.3 181.6 L 629.4 181.6 L 632.6 181.6 L 635.7 181.6 L 638.8 181.6 L 642.0 181.6 L 645.1 181.6 L 648.3 181.6 L 651.4 181.6 L 654.6 181.6 L 657.7 181.6 L 660.9 181.6 L 664.0 181.6 L 667.2 181.6 L 670.3 181.6 L 673.4 181.6 L 676.6 181.6 L 679.7 181.6 L 682.9 181.6 L 686.0 181.6 L 689.2 181.6 L 692.3 162.4 L 695.5 162.4 L 698.6 162.4 L 701.8 162.4 L 704.9 162.4 L 708.1 162.4 L 711.2 162.4 L 714.3 162.4 L 717.5 162.4 L 720.6 162.4 L 723.8 162.4 L 726.9 162.4 L 730.1 162.4 L 733.2 162.4 L 736.4 162.4 L 739.5 162.4 L 742.7 162.4 L 745.8 162.4 L 748.9 162.4 L 752.1 162.4 L 755.2 162.4 L 758.4 162.4 L 761.5 162.4 L 764.7 162.4 L 767.8 162.4 L 771.0 162.4 L 774.1 162.4 L 777.3 162.4 L 780.4 181.6 L 783.5 181.6 L 786.7 181.6 L 789.8 181.6 L 793.0 181.6 L 796.1 181.6 L 799.3 181.6 L 802.4 181.6 L 805.6 181.6 L 808.7 181.6 L 811.9 181.6 L 815.0 181.6 L 818.2 181.6 L 821.3 181.6 L 824.4 181.6 L 827.6 181.6 L 830.7 181.6 L 833.9 181.6 L 837.0 181.6 L 840.2 181.6 L 843.3 181.6 L 846.5 181.6 L 849.6 181.6 L 852.8 181.6 L 855.9 181.6 L 859.0 181.6 L 862.2 181.6 L 865.3 181.6 L 868.5 162.4 L 871.6 162.4 L 874.8 162.4 L 877.9 162.4 L 881.1 162.4 L 884.2 162.4 L 887.4 162.4 L 890.5 162.4 L 893.6 162.4 L 896.8 162.4 L 899.9 162.4 L 903.1 162.4 L 906.2 162.4 L 909.4 162.4 L 912.5 162.4 L 915.7 162.4 L 918.8 162.4 L 922.0 162.4 L 925.1 162.4 L 928.3 162.4 L 931.4 162.4 L 934.5 162.4 L 937.7 162.4 L 940.8 162.4 L 944.0 162.4 L 947.1 162.4 L 950.3 162.4 L 953.4 162.4 L 956.6 181.6 L 959.7 181.6 L 962.9 181.6 L 966.0 181.6" fill="none" stroke="#34c8f2" stroke-width="1.6" stroke-linejoin="round" stroke-linecap="round" pathLength="1" stroke-dasharray="1 1" stroke-dashoffset="1" filter="url(#glow)"><animate attributeName="stroke-dashoffset" values="1;0" dur="4.5s" begin="0.44s" repeatCount="indefinite" calcMode="linear"/></path><path d="M 340.0 210.5 L 343.1 209.4 L 346.3 208.5 L 349.4 207.6 L 352.6 206.8 L 355.7 206.2 L 358.9 205.6 L 362.0 205.2 L 365.2 204.9 L 368.3 204.6 L 371.5 204.5 L 374.6 204.4 L 377.7 204.3 L 380.9 204.3 L 384.0 204.3 L 387.2 204.4 L 390.3 204.4 L 393.5 204.4 L 396.6 204.5 L 399.8 204.5 L 402.9 204.6 L 406.1 204.6 L 409.2 204.7 L 412.4 204.8 L 415.5 205.0 L 418.6 205.2 L 421.8 205.5 L 424.9 205.8 L 428.1 206.3 L 431.2 206.9 L 434.4 207.5 L 437.5 208.3 L 440.7 209.2 L 443.8 210.2 L 447.0 211.2 L 450.1 212.3 L 453.2 213.5 L 456.4 214.7 L 459.5 215.9 L 462.7 217.0 L 465.8 218.2 L 469.0 219.2 L 472.1 220.1 L 475.3 221.0 L 478.4 221.7 L 481.6 222.2 L 484.7 222.6 L 487.8 222.8 L 491.0 222.8 L 494.1 222.7 L 497.3 222.5 L 500.4 222.1 L 503.6 221.6 L 506.7 221.0 L 509.9 220.3 L 513.0 219.5 L 516.2 218.7 L 519.3 217.9 L 522.5 217.1 L 525.6 216.3 L 528.7 215.5 L 531.9 214.8 L 535.0 214.1 L 538.2 213.4 L 541.3 212.8 L 544.5 212.2 L 547.6 211.7 L 550.8 211.2 L 553.9 210.7 L 557.1 210.2 L 560.2 209.7 L 563.3 209.2 L 566.5 208.7 L 569.6 208.1 L 572.8 207.6 L 575.9 206.9 L 579.1 206.3 L 582.2 205.7 L 585.4 205.0 L 588.5 204.3 L 591.7 203.7 L 594.8 203.2 L 597.9 202.6 L 601.1 202.2 L 604.2 201.9 L 607.4 201.7 L 610.5 201.6 L 613.7 201.7 L 616.8 202.0 L 620.0 202.4 L 623.1 202.9 L 626.3 203.6 L 629.4 204.4 L 632.6 205.4 L 635.7 206.5 L 638.8 207.6 L 642.0 208.8 L 645.1 210.1 L 648.3 211.3 L 651.4 212.5 L 654.6 213.7 L 657.7 214.9 L 660.9 215.9 L 664.0 216.8 L 667.2 217.7 L 670.3 218.4 L 673.4 219.0 L 676.6 219.4 L 679.7 219.8 L 682.9 220.0 L 686.0 220.2 L 689.2 220.2 L 692.3 220.2 L 695.5 220.1 L 698.6 220.0 L 701.8 219.9 L 704.9 219.7 L 708.1 219.6 L 711.2 219.4 L 714.3 219.2 L 717.5 219.1 L 720.6 218.9 L 723.8 218.8 L 726.9 218.6 L 730.1 218.4 L 733.2 218.1 L 736.4 217.8 L 739.5 217.5 L 742.7 217.0 L 745.8 216.5 L 748.9 215.9 L 752.1 215.2 L 755.2 214.4 L 758.4 213.5 L 761.5 212.5 L 764.7 211.5 L 767.8 210.4 L 771.0 209.2 L 774.1 208.1 L 777.3 207.0 L 780.4 205.9 L 783.5 204.8 L 786.7 203.9 L 789.8 203.0 L 793.0 202.3 L 796.1 201.7 L 799.3 201.3 L 802.4 201.1 L 805.6 201.0 L 808.7 201.0 L 811.9 201.3 L 815.0 201.7 L 818.2 202.2 L 821.3 202.8 L 824.4 203.6 L 827.6 204.4 L 830.7 205.2 L 833.9 206.1 L 837.0 207.0 L 840.2 207.9 L 843.3 208.8 L 846.5 209.7 L 849.6 210.5 L 852.8 211.2 L 855.9 211.9 L 859.0 212.5 L 862.2 213.1 L 865.3 213.6 L 868.5 214.1 L 871.6 214.6 L 874.8 215.0 L 877.9 215.5 L 881.1 215.9 L 884.2 216.4 L 887.4 216.9 L 890.5 217.4 L 893.6 217.9 L 896.8 218.4 L 899.9 219.0 L 903.1 219.5 L 906.2 220.1 L 909.4 220.6 L 912.5 221.0 L 915.7 221.4 L 918.8 221.7 L 922.0 221.9 L 925.1 222.0 L 928.3 221.9 L 931.4 221.7 L 934.5 221.3 L 937.7 220.8 L 940.8 220.2 L 944.0 219.4 L 947.1 218.5 L 950.3 217.5 L 953.4 216.3 L 956.6 215.1 L 959.7 213.9 L 962.9 212.6 L 966.0 211.3" fill="none" stroke="#6f92cf" stroke-width="1.6" stroke-linejoin="round" stroke-linecap="round" pathLength="1" stroke-dasharray="1 1" stroke-dashoffset="1" filter="url(#glow)"><animate attributeName="stroke-dashoffset" values="1;0" dur="4.5s" begin="0.66s" repeatCount="indefinite" calcMode="linear"/></path><path d="M 340.0 262.2 L 343.1 262.2 L 346.3 262.2 L 349.4 262.2 L 352.6 262.2 L 355.7 262.2 L 358.9 262.2 L 362.0 262.2 L 365.2 262.2 L 368.3 262.2 L 371.5 262.2 L 374.6 262.2 L 377.7 262.2 L 380.9 262.2 L 384.0 262.2 L 387.2 258.8 L 390.3 258.8 L 393.5 258.8 L 396.6 258.8 L 399.8 258.8 L 402.9 258.8 L 406.1 258.8 L 409.2 258.8 L 412.4 258.8 L 415.5 258.8 L 418.6 258.8 L 421.8 258.8 L 424.9 258.8 L 428.1 258.8 L 431.2 255.4 L 434.4 255.4 L 437.5 255.4 L 440.7 255.4 L 443.8 255.4 L 447.0 255.4 L 450.1 255.4 L 453.2 255.4 L 456.4 255.4 L 459.5 255.4 L 462.7 255.4 L 465.8 255.4 L 469.0 255.4 L 472.1 255.4 L 475.3 252.0 L 478.4 252.0 L 481.6 252.0 L 484.7 252.0 L 487.8 252.0 L 491.0 252.0 L 494.1 252.0 L 497.3 252.0 L 500.4 252.0 L 503.6 252.0 L 506.7 252.0 L 509.9 252.0 L 513.0 252.0 L 516.2 252.0 L 519.3 248.6 L 522.5 248.6 L 525.6 248.6 L 528.7 248.6 L 531.9 248.6 L 535.0 248.6 L 538.2 248.6 L 541.3 248.6 L 544.5 248.6 L 547.6 248.6 L 550.8 248.6 L 553.9 248.6 L 557.1 248.6 L 560.2 248.6 L 563.3 248.6 L 566.5 245.2 L 569.6 245.2 L 572.8 245.2 L 575.9 245.2 L 579.1 245.2 L 582.2 245.2 L 585.4 245.2 L 588.5 245.2 L 591.7 245.2 L 594.8 245.2 L 597.9 245.2 L 601.1 245.2 L 604.2 245.2 L 607.4 245.2 L 610.5 241.8 L 613.7 241.8 L 616.8 241.8 L 620.0 241.8 L 623.1 241.8 L 626.3 241.8 L 629.4 241.8 L 632.6 241.8 L 635.7 241.8 L 638.8 241.8 L 642.0 241.8 L 645.1 241.8 L 648.3 241.8 L 651.4 241.8 L 654.6 262.2 L 657.7 262.2 L 660.9 262.2 L 664.0 262.2 L 667.2 262.2 L 670.3 262.2 L 673.4 262.2 L 676.6 262.2 L 679.7 262.2 L 682.9 262.2 L 686.0 262.2 L 689.2 262.2 L 692.3 262.2 L 695.5 262.2 L 698.6 258.8 L 701.8 258.8 L 704.9 258.8 L 708.1 258.8 L 711.2 258.8 L 714.3 258.8 L 717.5 258.8 L 720.6 258.8 L 723.8 258.8 L 726.9 258.8 L 730.1 258.8 L 733.2 258.8 L 736.4 258.8 L 739.5 258.8 L 742.7 255.4 L 745.8 255.4 L 748.9 255.4 L 752.1 255.4 L 755.2 255.4 L 758.4 255.4 L 761.5 255.4 L 764.7 255.4 L 767.8 255.4 L 771.0 255.4 L 774.1 255.4 L 777.3 255.4 L 780.4 255.4 L 783.5 255.4 L 786.7 255.4 L 789.8 252.0 L 793.0 252.0 L 796.1 252.0 L 799.3 252.0 L 802.4 252.0 L 805.6 252.0 L 808.7 252.0 L 811.9 252.0 L 815.0 252.0 L 818.2 252.0 L 821.3 252.0 L 824.4 252.0 L 827.6 252.0 L 830.7 252.0 L 833.9 248.6 L 837.0 248.6 L 840.2 248.6 L 843.3 248.6 L 846.5 248.6 L 849.6 248.6 L 852.8 248.6 L 855.9 248.6 L 859.0 248.6 L 862.2 248.6 L 865.3 248.6 L 868.5 248.6 L 871.6 248.6 L 874.8 248.6 L 877.9 245.2 L 881.1 245.2 L 884.2 245.2 L 887.4 245.2 L 890.5 245.2 L 893.6 245.2 L 896.8 245.2 L 899.9 245.2 L 903.1 245.2 L 906.2 245.2 L 909.4 245.2 L 912.5 245.2 L 915.7 245.2 L 918.8 245.2 L 922.0 241.8 L 925.1 241.8 L 928.3 241.8 L 931.4 241.8 L 934.5 241.8 L 937.7 241.8 L 940.8 241.8 L 944.0 241.8 L 947.1 241.8 L 950.3 241.8 L 953.4 241.8 L 956.6 241.8 L 959.7 241.8 L 962.9 241.8 L 966.0 262.2" fill="none" stroke="#f2b45c" stroke-width="1.6" stroke-linejoin="round" stroke-linecap="round" pathLength="1" stroke-dasharray="1 1" stroke-dashoffset="1" filter="url(#glow)"><animate attributeName="stroke-dashoffset" values="1;0" dur="4.5s" begin="0.88s" repeatCount="indefinite" calcMode="linear"/></path><path d="M 340.0 290.5 L 343.1 289.7 L 346.3 289.0 L 349.4 288.3 L 352.6 287.6 L 355.7 287.1 L 358.9 286.5 L 362.0 286.1 L 365.2 285.7 L 368.3 285.4 L 371.5 285.1 L 374.6 284.8 L 377.7 284.7 L 380.9 284.5 L 384.0 284.4 L 387.2 284.4 L 390.3 284.3 L 393.5 284.3 L 396.6 284.3 L 399.8 284.3 L 402.9 284.4 L 406.1 284.4 L 409.2 284.4 L 412.4 284.4 L 415.5 284.5 L 418.6 284.5 L 421.8 284.5 L 424.9 284.6 L 428.1 284.6 L 431.2 284.6 L 434.4 284.7 L 437.5 284.8 L 440.7 284.9 L 443.8 285.0 L 447.0 285.2 L 450.1 285.3 L 453.2 285.6 L 456.4 285.9 L 459.5 286.2 L 462.7 286.6 L 465.8 287.1 L 469.0 287.6 L 472.1 288.1 L 475.3 288.8 L 478.4 289.4 L 481.6 290.2 L 484.7 290.9 L 487.8 291.7 L 491.0 292.6 L 494.1 293.4 L 497.3 294.3 L 500.4 295.2 L 503.6 296.0 L 506.7 296.9 L 509.9 297.7 L 513.0 298.5 L 516.2 299.3 L 519.3 300.0 L 522.5 300.6 L 525.6 301.2 L 528.7 301.7 L 531.9 302.1 L 535.0 302.4 L 538.2 302.6 L 541.3 302.8 L 544.5 302.8 L 547.6 302.8 L 550.8 302.7 L 553.9 302.5 L 557.1 302.3 L 560.2 301.9 L 563.3 301.5 L 566.5 301.1 L 569.6 300.6 L 572.8 300.1 L 575.9 299.5 L 579.1 298.9 L 582.2 298.3 L 585.4 297.7 L 588.5 297.1 L 591.7 296.5 L 594.8 295.9 L 597.9 295.4 L 601.1 294.8 L 604.2 294.3 L 607.4 293.8 L 610.5 293.4 L 613.7 292.9 L 616.8 292.5 L 620.0 292.1 L 623.1 291.7 L 626.3 291.3 L 629.4 291.0 L 632.6 290.6 L 635.7 290.3 L 638.8 289.9 L 642.0 289.5 L 645.1 289.2 L 648.3 288.8 L 651.4 288.4 L 654.6 288.0 L 657.7 287.5 L 660.9 287.1 L 664.0 286.6 L 667.2 286.1 L 670.3 285.7 L 673.4 285.2 L 676.6 284.7 L 679.7 284.2 L 682.9 283.8 L 686.0 283.3 L 689.2 282.9 L 692.3 282.6 L 695.5 282.3 L 698.6 282.0 L 701.8 281.8 L 704.9 281.7 L 708.1 281.6 L 711.2 281.7 L 714.3 281.8 L 717.5 282.0 L 720.6 282.2 L 723.8 282.6 L 726.9 283.0 L 730.1 283.5 L 733.2 284.1 L 736.4 284.8 L 739.5 285.5 L 742.7 286.3 L 745.8 287.1 L 748.9 288.0 L 752.1 288.9 L 755.2 289.8 L 758.4 290.7 L 761.5 291.6 L 764.7 292.5 L 767.8 293.4 L 771.0 294.3 L 774.1 295.1 L 777.3 295.8 L 780.4 296.5 L 783.5 297.2 L 786.7 297.8 L 789.8 298.3 L 793.0 298.7 L 796.1 299.1 L 799.3 299.4 L 802.4 299.7 L 805.6 299.9 L 808.7 300.1 L 811.9 300.2 L 815.0 300.2 L 818.2 300.2 L 821.3 300.2 L 824.4 300.1 L 827.6 300.1 L 830.7 300.0 L 833.9 299.9 L 837.0 299.7 L 840.2 299.6 L 843.3 299.5 L 846.5 299.4 L 849.6 299.3 L 852.8 299.2 L 855.9 299.1 L 859.0 298.9 L 862.2 298.8 L 865.3 298.7 L 868.5 298.6 L 871.6 298.4 L 874.8 298.2 L 877.9 298.0 L 881.1 297.8 L 884.2 297.5 L 887.4 297.2 L 890.5 296.9 L 893.6 296.5 L 896.8 296.0 L 899.9 295.5 L 903.1 295.0 L 906.2 294.4 L 909.4 293.7 L 912.5 293.0 L 915.7 292.3 L 918.8 291.5 L 922.0 290.7 L 925.1 289.9 L 928.3 289.1 L 931.4 288.2 L 934.5 287.4 L 937.7 286.6 L 940.8 285.8 L 944.0 285.0 L 947.1 284.3 L 950.3 283.6 L 953.4 283.0 L 956.6 282.5 L 959.7 282.0 L 962.9 281.6 L 966.0 281.3" fill="none" stroke="#9d8cff" stroke-width="1.6" stroke-linejoin="round" stroke-linecap="round" pathLength="1" stroke-dasharray="1 1" stroke-dashoffset="1" filter="url(#glow)"><animate attributeName="stroke-dashoffset" values="1;0" dur="4.5s" begin="1.10s" repeatCount="indefinite" calcMode="linear"/></path></g>
<rect x="26" y="82" width="36" height="20" rx="3" fill="#0b1d34" stroke="#4d9fff" stroke-width="0.9"/><text x="44" y="96" text-anchor="middle" font-size="11" font-weight="700" fill="#4d9fff">PY</text><text x="78" y="93" font-size="14.5" font-weight="700" fill="#d8e8ff">Python</text><text x="78" y="106" font-size="9" letter-spacing="0.3" fill="#4d6a99">signal / ML</text><rect x="1120" y="83" width="54" height="18" rx="9" fill="none" stroke="#f2b45c" stroke-width="1"/><text x="1147" y="96" text-anchor="middle" font-size="9.5" font-weight="700" letter-spacing="1" fill="#f2b45c">MAIN</text>
<rect x="26" y="122" width="36" height="20" rx="3" fill="#0b1d34" stroke="#48b4ff" stroke-width="0.9"/><text x="44" y="136" text-anchor="middle" font-size="11" font-weight="700" fill="#48b4ff">PT</text><text x="78" y="133" font-size="14.5" font-weight="700" fill="#d8e8ff">PyTorch</text><text x="78" y="146" font-size="9" letter-spacing="0.3" fill="#4d6a99">deep learning</text><text x="1174" y="136" text-anchor="end" font-size="10.5" letter-spacing="0.5" fill="#6f8fc0">daily</text>
<rect x="26" y="162" width="36" height="20" rx="3" fill="#0b1d34" stroke="#34c8f2" stroke-width="0.9"/><text x="44" y="176" text-anchor="middle" font-size="11" font-weight="700" fill="#34c8f2">GO</text><text x="78" y="173" font-size="14.5" font-weight="700" fill="#d8e8ff">Go</text><text x="78" y="186" font-size="9" letter-spacing="0.3" fill="#4d6a99">systems / desktop</text><text x="1174" y="176" text-anchor="end" font-size="10.5" letter-spacing="0.5" fill="#6f8fc0">daily</text>
<rect x="26" y="202" width="36" height="20" rx="3" fill="#0b1d34" stroke="#6f92cf" stroke-width="0.9"/><text x="44" y="216" text-anchor="middle" font-size="11" font-weight="700" fill="#6f92cf">TS</text><text x="78" y="213" font-size="14.5" font-weight="700" fill="#d8e8ff">Svelte + TS</text><text x="78" y="226" font-size="9" letter-spacing="0.3" fill="#4d6a99">reactive UI</text><text x="1174" y="216" text-anchor="end" font-size="10.5" letter-spacing="0.5" fill="#6f8fc0">daily</text>
<rect x="26" y="242" width="36" height="20" rx="3" fill="#0b1d34" stroke="#f2b45c" stroke-width="0.9"/><text x="44" y="256" text-anchor="middle" font-size="11" font-weight="700" fill="#f2b45c">AI</text><text x="78" y="253" font-size="14.5" font-weight="700" fill="#d8e8ff">OpenVINO / NPU</text><text x="78" y="266" font-size="9" letter-spacing="0.3" fill="#4d6a99">edge inference</text><text x="1174" y="256" text-anchor="end" font-size="10.5" letter-spacing="0.5" fill="#6f8fc0">exploring</text>
<rect x="26" y="282" width="36" height="20" rx="3" fill="#0b1d34" stroke="#9d8cff" stroke-width="0.9"/><text x="44" y="296" text-anchor="middle" font-size="11" font-weight="700" fill="#9d8cff">WEB</text><text x="78" y="293" font-size="14.5" font-weight="700" fill="#d8e8ff">SCSS / Web</text><text x="78" y="306" font-size="9" letter-spacing="0.3" fill="#4d6a99">frontend</text><text x="1174" y="296" text-anchor="end" font-size="10.5" letter-spacing="0.5" fill="#6f8fc0">occasional</text>
</svg>
