<svg xmlns="http://www.w3.org/2000/svg" xmlns:xlink="http://www.w3.org/1999/xlink" viewBox="0 0 1200 330" width="1200" height="330" role="img" aria-labelledby="ti de" preserveAspectRatio="xMidYMid meet" font-family="ui-monospace, SFMono-Regular, Menlo, 'Courier New', 'Malgun Gothic', monospace">
<title id="ti">Tech stack and proficiency - probe bank</title>
<desc id="de">A probe bank listing the stack as oscilloscope channels, each with a mini signal that encodes its character (Go a square wave, OpenVINO NPU an INT8 staircase, and so on) and a segmented proficiency meter. Python is marked as the main language.</desc>
<defs><linearGradient id="bg" x1="0" y1="0" x2="0" y2="1"><stop offset="0" stop-color="#080f1e"/><stop offset="1" stop-color="#05080f"/></linearGradient><filter id="glow" x="-6%" y="-60%" width="112%" height="220%"><feGaussianBlur stdDeviation="1.15" result="b"/><feMerge><feMergeNode in="b"/><feMergeNode in="SourceGraphic"/></feMerge></filter><pattern id="grid" width="26" height="26" patternUnits="userSpaceOnUse"><path d="M26 0H0V26" fill="none" stroke="#183a63" stroke-width="0.6" opacity="0.4"/></pattern><clipPath id="scr"><rect x="300" y="66" width="500" height="248" rx="4"/></clipPath></defs>
<rect x="0" y="0" width="1200" height="330" rx="16" fill="#03060d"/>
<rect x="5" y="5" width="1190" height="320" rx="13" fill="url(#bg)" stroke="#1c4066" stroke-width="1.2"/>
<text x="26" y="40" font-size="17" font-weight="700" letter-spacing="2" fill="#d8e8ff">PROBE BANK</text>
<text x="176" y="40" font-size="12" letter-spacing="0.5" fill="#6f8fc0">/ stack + proficiency / 기술 스택</text>
<text x="1092" y="40" text-anchor="end" font-size="11" letter-spacing="1" fill="#4d6a99">MAIN</text><text x="1174" y="40" text-anchor="end" font-size="12" font-weight="700" letter-spacing="0.5" fill="#f2b45c">Python</text>
<text x="550" y="60" text-anchor="middle" font-size="8.5" letter-spacing="1.5" fill="#4d6a99">SIGNAL</text><text x="947" y="60" text-anchor="middle" font-size="8.5" letter-spacing="1.5" fill="#4d6a99">PROFICIENCY</text>
<rect x="300" y="66" width="500" height="248" rx="4" fill="#060e1d" stroke="#1e4270" stroke-width="0.8"/>
<g clip-path="url(#scr)"><rect x="300" y="66" width="500" height="248" fill="url(#grid)"/><line x1="340" y1="92" x2="796" y2="92" stroke="#26497a" stroke-width="0.6" stroke-dasharray="2 5" opacity="0.5"/><line x1="340" y1="132" x2="796" y2="132" stroke="#26497a" stroke-width="0.6" stroke-dasharray="2 5" opacity="0.5"/><line x1="340" y1="172" x2="796" y2="172" stroke="#26497a" stroke-width="0.6" stroke-dasharray="2 5" opacity="0.5"/><line x1="340" y1="212" x2="796" y2="212" stroke="#26497a" stroke-width="0.6" stroke-dasharray="2 5" opacity="0.5"/><line x1="340" y1="252" x2="796" y2="252" stroke="#26497a" stroke-width="0.6" stroke-dasharray="2 5" opacity="0.5"/><line x1="340" y1="292" x2="796" y2="292" stroke="#26497a" stroke-width="0.6" stroke-dasharray="2 5" opacity="0.5"/><path d="M 340.0 92.4 L 342.9 92.9 L 345.7 93.0 L 348.6 92.1 L 351.5 92.2 L 354.3 92.6 L 357.2 91.8 L 360.1 93.0 L 362.9 92.8 L 365.8 91.3 L 368.7 91.7 L 371.5 93.0 L 374.4 91.6 L 377.3 91.8 L 380.2 91.3 L 383.0 91.8 L 385.9 91.4 L 388.8 92.8 L 391.6 92.8 L 394.5 91.8 L 397.4 91.3 L 400.2 91.7 L 403.1 90.9 L 406.0 91.4 L 408.8 91.3 L 411.7 92.8 L 414.6 93.8 L 417.4 93.8 L 420.3 93.1 L 423.2 90.7 L 426.0 90.1 L 428.9 90.5 L 431.8 92.3 L 434.6 95.3 L 437.5 94.9 L 440.4 94.3 L 443.2 90.3 L 446.1 87.9 L 449.0 89.9 L 451.8 90.5 L 454.7 96.7 L 457.6 98.8 L 460.5 96.8 L 463.3 92.7 L 466.2 86.8 L 469.1 84.2 L 471.9 92.3 L 474.8 96.5 L 477.7 101.2 L 480.5 99.7 L 483.4 91.6 L 486.3 81.9 L 489.1 85.7 L 492.0 84.8 L 494.9 99.0 L 497.7 101.8 L 500.6 102.7 L 503.5 88.2 L 506.3 81.4 L 509.2 82.7 L 512.1 89.5 L 514.9 91.7 L 517.8 96.7 L 520.7 102.1 L 523.5 96.1 L 526.4 84.0 L 529.3 82.3 L 532.2 84.7 L 535.0 92.5 L 537.9 97.4 L 540.8 96.8 L 543.6 92.2 L 546.5 91.8 L 549.4 88.2 L 552.2 87.5 L 555.1 92.6 L 558.0 92.9 L 560.8 93.9 L 563.7 93.1 L 566.6 92.2 L 569.4 90.9 L 572.3 89.7 L 575.2 91.1 L 578.0 91.9 L 580.9 93.7 L 583.8 93.8 L 586.6 92.5 L 589.5 90.7 L 592.4 90.5 L 595.2 91.4 L 598.1 92.1 L 601.0 93.6 L 603.8 93.9 L 606.7 91.8 L 609.6 89.3 L 612.5 88.0 L 615.3 88.3 L 618.2 94.1 L 621.1 99.3 L 623.9 95.4 L 626.8 94.0 L 629.7 86.7 L 632.5 85.6 L 635.4 84.0 L 638.3 92.9 L 641.1 100.7 L 644.0 100.6 L 646.9 98.2 L 649.7 91.2 L 652.6 80.0 L 655.5 87.1 L 658.3 92.3 L 661.2 96.7 L 664.1 100.1 L 666.9 101.7 L 669.8 91.8 L 672.7 83.5 L 675.5 80.0 L 678.4 90.0 L 681.3 93.9 L 684.2 100.2 L 687.0 100.1 L 689.9 94.1 L 692.8 88.7 L 695.6 87.0 L 698.5 92.1 L 701.4 93.8 L 704.2 96.8 L 707.1 94.4 L 710.0 91.9 L 712.8 90.3 L 715.7 88.8 L 718.6 91.5 L 721.4 92.7 L 724.3 94.0 L 727.2 92.2 L 730.0 93.0 L 732.9 91.8 L 735.8 91.7 L 738.6 91.3 L 741.5 92.5 L 744.4 92.5 L 747.2 93.0 L 750.1 92.6 L 753.0 93.0 L 755.8 92.5 L 758.7 91.4 L 761.6 91.2 L 764.5 91.0 L 767.3 91.7 L 770.2 91.2 L 773.1 91.3 L 775.9 92.0 L 778.8 91.3 L 781.7 91.6 L 784.5 93.0 L 787.4 92.9 L 790.3 91.7 L 793.1 92.0 L 796.0 91.5" fill="none" stroke="#4d9fff" stroke-width="1.6" stroke-linejoin="round" stroke-linecap="round" pathLength="1" stroke-dasharray="1 1" stroke-dashoffset="1" filter="url(#glow)"><animate attributeName="stroke-dashoffset" values="1;0" dur="4.5s" begin="0.00s" repeatCount="indefinite" calcMode="linear"/></path><path d="M 340.0 131.0 L 342.9 130.9 L 345.7 131.2 L 348.6 131.5 L 351.5 131.2 L 354.3 131.1 L 357.2 132.2 L 360.1 131.9 L 362.9 131.2 L 365.8 133.0 L 368.7 131.6 L 371.5 131.3 L 374.4 132.1 L 377.3 131.9 L 380.2 132.4 L 383.0 131.4 L 385.9 131.5 L 388.8 132.0 L 391.6 130.8 L 394.5 131.0 L 397.4 132.4 L 400.2 133.0 L 403.1 130.9 L 406.0 130.0 L 408.8 131.7 L 411.7 133.9 L 414.6 133.9 L 417.4 129.3 L 420.3 127.3 L 423.2 135.0 L 426.0 140.5 L 428.9 130.5 L 431.8 125.4 L 434.6 128.3 L 437.5 138.0 L 440.4 138.6 L 443.2 126.4 L 446.1 122.3 L 449.0 133.1 L 451.8 143.3 L 454.7 136.3 L 457.6 120.0 L 460.5 121.8 L 463.3 136.4 L 466.2 138.7 L 469.1 133.5 L 471.9 123.4 L 474.8 129.1 L 477.7 138.6 L 480.5 135.5 L 483.4 129.6 L 486.3 126.7 L 489.1 131.3 L 492.0 135.9 L 494.9 132.5 L 497.7 129.4 L 500.6 129.5 L 503.5 132.8 L 506.3 134.0 L 509.2 130.9 L 512.1 130.2 L 514.9 132.1 L 517.8 132.0 L 520.7 131.7 L 523.5 131.8 L 526.4 131.8 L 529.3 131.8 L 532.2 132.2 L 535.0 131.9 L 537.9 132.1 L 540.8 130.7 L 543.6 132.1 L 546.5 132.8 L 549.4 131.0 L 552.2 129.8 L 555.1 130.7 L 558.0 135.3 L 560.8 134.4 L 563.7 131.0 L 566.6 126.2 L 569.4 132.6 L 572.3 140.8 L 575.2 132.2 L 578.0 124.5 L 580.9 122.8 L 583.8 134.7 L 586.6 138.8 L 589.5 130.4 L 592.4 122.3 L 595.2 129.2 L 598.1 142.2 L 601.0 138.6 L 603.8 127.8 L 606.7 125.1 L 609.6 131.2 L 612.5 139.7 L 615.3 136.6 L 618.2 126.0 L 621.1 129.1 L 623.9 132.4 L 626.8 134.8 L 629.7 132.6 L 632.5 129.6 L 635.4 131.7 L 638.3 133.8 L 641.1 133.6 L 644.0 131.2 L 646.9 132.3 L 649.7 132.6 L 652.6 132.9 L 655.5 132.2 L 658.3 130.7 L 661.2 131.6 L 664.1 132.3 L 666.9 133.7 L 669.8 132.5 L 672.7 130.4 L 675.5 129.4 L 678.4 135.6 L 681.3 135.9 L 684.2 130.3 L 687.0 126.0 L 689.9 132.1 L 692.8 139.2 L 695.6 135.8 L 698.5 126.8 L 701.4 120.4 L 704.2 133.0 L 707.1 138.4 L 710.0 131.3 L 712.8 125.8 L 715.7 123.4 L 718.6 141.9 L 721.4 140.5 L 724.3 126.0 L 727.2 122.0 L 730.0 130.1 L 732.9 138.8 L 735.8 137.7 L 738.6 127.5 L 741.5 127.3 L 744.4 133.2 L 747.2 135.8 L 750.1 133.7 L 753.0 130.5 L 755.8 130.9 L 758.7 132.9 L 761.6 132.4 L 764.5 131.7 L 767.3 130.3 L 770.2 131.2 L 773.1 132.0 L 775.9 133.0 L 778.8 131.0 L 781.7 132.4 L 784.5 132.8 L 787.4 131.4 L 790.3 132.8 L 793.1 131.2 L 796.0 131.1" fill="none" stroke="#48b4ff" stroke-width="1.6" stroke-linejoin="round" stroke-linecap="round" pathLength="1" stroke-dasharray="1 1" stroke-dashoffset="1" filter="url(#glow)"><animate attributeName="stroke-dashoffset" values="1;0" dur="4.5s" begin="0.22s" repeatCount="indefinite" calcMode="linear"/></path><path d="M 340.0 162.4 L 342.9 162.4 L 345.7 162.4 L 348.6 162.4 L 351.5 162.4 L 354.3 162.4 L 357.2 162.4 L 360.1 162.4 L 362.9 162.4 L 365.8 162.4 L 368.7 162.4 L 371.5 162.4 L 374.4 162.4 L 377.3 162.4 L 380.2 162.4 L 383.0 162.4 L 385.9 162.4 L 388.8 162.4 L 391.6 162.4 L 394.5 162.4 L 397.4 162.4 L 400.2 162.4 L 403.1 162.4 L 406.0 181.6 L 408.8 181.6 L 411.7 181.6 L 414.6 181.6 L 417.4 181.6 L 420.3 181.6 L 423.2 181.6 L 426.0 181.6 L 428.9 181.6 L 431.8 181.6 L 434.6 181.6 L 437.5 181.6 L 440.4 181.6 L 443.2 181.6 L 446.1 181.6 L 449.0 181.6 L 451.8 181.6 L 454.7 181.6 L 457.6 181.6 L 460.5 181.6 L 463.3 181.6 L 466.2 181.6 L 469.1 162.4 L 471.9 162.4 L 474.8 162.4 L 477.7 162.4 L 480.5 162.4 L 483.4 162.4 L 486.3 162.4 L 489.1 162.4 L 492.0 162.4 L 494.9 162.4 L 497.7 162.4 L 500.6 162.4 L 503.5 162.4 L 506.3 162.4 L 509.2 162.4 L 512.1 162.4 L 514.9 162.4 L 517.8 162.4 L 520.7 162.4 L 523.5 162.4 L 526.4 162.4 L 529.3 162.4 L 532.2 181.6 L 535.0 181.6 L 537.9 181.6 L 540.8 181.6 L 543.6 181.6 L 546.5 181.6 L 549.4 181.6 L 552.2 181.6 L 555.1 181.6 L 558.0 181.6 L 560.8 181.6 L 563.7 181.6 L 566.6 181.6 L 569.4 181.6 L 572.3 181.6 L 575.2 181.6 L 578.0 181.6 L 580.9 181.6 L 583.8 181.6 L 586.6 181.6 L 589.5 181.6 L 592.4 181.6 L 595.2 181.6 L 598.1 162.4 L 601.0 162.4 L 603.8 162.4 L 606.7 162.4 L 609.6 162.4 L 612.5 162.4 L 615.3 162.4 L 618.2 162.4 L 621.1 162.4 L 623.9 162.4 L 626.8 162.4 L 629.7 162.4 L 632.5 162.4 L 635.4 162.4 L 638.3 162.4 L 641.1 162.4 L 644.0 162.4 L 646.9 162.4 L 649.7 162.4 L 652.6 162.4 L 655.5 162.4 L 658.3 162.4 L 661.2 181.6 L 664.1 181.6 L 666.9 181.6 L 669.8 181.6 L 672.7 181.6 L 675.5 181.6 L 678.4 181.6 L 681.3 181.6 L 684.2 181.6 L 687.0 181.6 L 689.9 181.6 L 692.8 181.6 L 695.6 181.6 L 698.5 181.6 L 701.4 181.6 L 704.2 181.6 L 707.1 181.6 L 710.0 181.6 L 712.8 181.6 L 715.7 181.6 L 718.6 181.6 L 721.4 181.6 L 724.3 162.4 L 727.2 162.4 L 730.0 162.4 L 732.9 162.4 L 735.8 162.4 L 738.6 162.4 L 741.5 162.4 L 744.4 162.4 L 747.2 162.4 L 750.1 162.4 L 753.0 162.4 L 755.8 162.4 L 758.7 162.4 L 761.6 162.4 L 764.5 162.4 L 767.3 162.4 L 770.2 162.4 L 773.1 162.4 L 775.9 162.4 L 778.8 162.4 L 781.7 162.4 L 784.5 162.4 L 787.4 181.6 L 790.3 181.6 L 793.1 181.6 L 796.0 181.6" fill="none" stroke="#34c8f2" stroke-width="1.6" stroke-linejoin="round" stroke-linecap="round" pathLength="1" stroke-dasharray="1 1" stroke-dashoffset="1" filter="url(#glow)"><animate attributeName="stroke-dashoffset" values="1;0" dur="4.5s" begin="0.44s" repeatCount="indefinite" calcMode="linear"/></path><path d="M 340.0 210.5 L 342.9 209.2 L 345.7 208.0 L 348.6 207.0 L 351.5 206.2 L 354.3 205.5 L 357.2 205.0 L 360.1 204.7 L 362.9 204.5 L 365.8 204.4 L 368.7 204.3 L 371.5 204.3 L 374.4 204.4 L 377.3 204.4 L 380.2 204.5 L 383.0 204.5 L 385.9 204.6 L 388.8 204.6 L 391.6 204.7 L 394.5 204.9 L 397.4 205.2 L 400.2 205.5 L 403.1 206.1 L 406.0 206.7 L 408.8 207.6 L 411.7 208.5 L 414.6 209.7 L 417.4 211.0 L 420.3 212.4 L 423.2 213.8 L 426.0 215.3 L 428.9 216.8 L 431.8 218.2 L 434.6 219.5 L 437.5 220.6 L 440.4 221.5 L 443.2 222.2 L 446.1 222.7 L 449.0 222.8 L 451.8 222.8 L 454.7 222.5 L 457.6 221.9 L 460.5 221.2 L 463.3 220.4 L 466.2 219.4 L 469.1 218.4 L 471.9 217.4 L 474.8 216.4 L 477.7 215.4 L 480.5 214.5 L 483.4 213.7 L 486.3 212.9 L 489.1 212.2 L 492.0 211.5 L 494.9 210.9 L 497.7 210.3 L 500.6 209.7 L 503.5 209.1 L 506.3 208.4 L 509.2 207.7 L 512.1 206.9 L 514.9 206.1 L 517.8 205.3 L 520.7 204.4 L 523.5 203.7 L 526.4 203.0 L 529.3 202.4 L 532.2 201.9 L 535.0 201.7 L 537.9 201.7 L 540.8 201.8 L 543.6 202.3 L 546.5 203.0 L 549.4 203.9 L 552.2 205.0 L 555.1 206.3 L 558.0 207.7 L 560.8 209.3 L 563.7 210.8 L 566.6 212.4 L 569.4 213.9 L 572.3 215.3 L 575.2 216.5 L 578.0 217.6 L 580.9 218.5 L 583.8 219.2 L 586.6 219.7 L 589.5 220.0 L 592.4 220.2 L 595.2 220.2 L 598.1 220.2 L 601.0 220.0 L 603.8 219.9 L 606.7 219.7 L 609.6 219.5 L 612.5 219.3 L 615.3 219.1 L 618.2 218.9 L 621.1 218.7 L 623.9 218.4 L 626.8 218.1 L 629.7 217.7 L 632.5 217.2 L 635.4 216.6 L 638.3 215.8 L 641.1 214.9 L 644.0 213.8 L 646.9 212.6 L 649.7 211.3 L 652.6 209.9 L 655.5 208.5 L 658.3 207.0 L 661.2 205.7 L 664.1 204.4 L 666.9 203.3 L 669.8 202.3 L 672.7 201.6 L 675.5 201.2 L 678.4 201.0 L 681.3 201.0 L 684.2 201.3 L 687.0 201.9 L 689.9 202.6 L 692.8 203.5 L 695.6 204.5 L 698.5 205.6 L 701.4 206.8 L 704.2 207.9 L 707.1 209.0 L 710.0 210.0 L 712.8 211.0 L 715.7 211.8 L 718.6 212.6 L 721.4 213.3 L 724.3 213.9 L 727.2 214.5 L 730.0 215.1 L 732.9 215.7 L 735.8 216.2 L 738.6 216.8 L 741.5 217.5 L 744.4 218.1 L 747.2 218.8 L 750.1 219.5 L 753.0 220.2 L 755.8 220.8 L 758.7 221.3 L 761.6 221.7 L 764.5 221.9 L 767.3 221.9 L 770.2 221.8 L 773.1 221.4 L 775.9 220.7 L 778.8 219.8 L 781.7 218.7 L 784.5 217.5 L 787.4 216.0 L 790.3 214.5 L 793.1 212.9 L 796.0 211.3" fill="none" stroke="#6f92cf" stroke-width="1.6" stroke-linejoin="round" stroke-linecap="round" pathLength="1" stroke-dasharray="1 1" stroke-dashoffset="1" filter="url(#glow)"><animate attributeName="stroke-dashoffset" values="1;0" dur="4.5s" begin="0.66s" repeatCount="indefinite" calcMode="linear"/></path><path d="M 340.0 262.2 L 342.9 262.2 L 345.7 262.2 L 348.6 262.2 L 351.5 262.2 L 354.3 262.2 L 357.2 262.2 L 360.1 262.2 L 362.9 262.2 L 365.8 262.2 L 368.7 262.2 L 371.5 262.2 L 374.4 258.8 L 377.3 258.8 L 380.2 258.8 L 383.0 258.8 L 385.9 258.8 L 388.8 258.8 L 391.6 258.8 L 394.5 258.8 L 397.4 258.8 L 400.2 258.8 L 403.1 258.8 L 406.0 255.4 L 408.8 255.4 L 411.7 255.4 L 414.6 255.4 L 417.4 255.4 L 420.3 255.4 L 423.2 255.4 L 426.0 255.4 L 428.9 255.4 L 431.8 255.4 L 434.6 255.4 L 437.5 255.4 L 440.4 252.0 L 443.2 252.0 L 446.1 252.0 L 449.0 252.0 L 451.8 252.0 L 454.7 252.0 L 457.6 252.0 L 460.5 252.0 L 463.3 252.0 L 466.2 252.0 L 469.1 252.0 L 471.9 248.6 L 474.8 248.6 L 477.7 248.6 L 480.5 248.6 L 483.4 248.6 L 486.3 248.6 L 489.1 248.6 L 492.0 248.6 L 494.9 248.6 L 497.7 248.6 L 500.6 248.6 L 503.5 245.2 L 506.3 245.2 L 509.2 245.2 L 512.1 245.2 L 514.9 245.2 L 517.8 245.2 L 520.7 245.2 L 523.5 245.2 L 526.4 245.2 L 529.3 245.2 L 532.2 245.2 L 535.0 245.2 L 537.9 241.8 L 540.8 241.8 L 543.6 241.8 L 546.5 241.8 L 549.4 241.8 L 552.2 241.8 L 555.1 241.8 L 558.0 241.8 L 560.8 241.8 L 563.7 241.8 L 566.6 241.8 L 569.4 262.2 L 572.3 262.2 L 575.2 262.2 L 578.0 262.2 L 580.9 262.2 L 583.8 262.2 L 586.6 262.2 L 589.5 262.2 L 592.4 262.2 L 595.2 262.2 L 598.1 262.2 L 601.0 258.8 L 603.8 258.8 L 606.7 258.8 L 609.6 258.8 L 612.5 258.8 L 615.3 258.8 L 618.2 258.8 L 621.1 258.8 L 623.9 258.8 L 626.8 258.8 L 629.7 258.8 L 632.5 258.8 L 635.4 255.4 L 638.3 255.4 L 641.1 255.4 L 644.0 255.4 L 646.9 255.4 L 649.7 255.4 L 652.6 255.4 L 655.5 255.4 L 658.3 255.4 L 661.2 255.4 L 664.1 255.4 L 666.9 252.0 L 669.8 252.0 L 672.7 252.0 L 675.5 252.0 L 678.4 252.0 L 681.3 252.0 L 684.2 252.0 L 687.0 252.0 L 689.9 252.0 L 692.8 252.0 L 695.6 252.0 L 698.5 248.6 L 701.4 248.6 L 704.2 248.6 L 707.1 248.6 L 710.0 248.6 L 712.8 248.6 L 715.7 248.6 L 718.6 248.6 L 721.4 248.6 L 724.3 248.6 L 727.2 248.6 L 730.0 248.6 L 732.9 245.2 L 735.8 245.2 L 738.6 245.2 L 741.5 245.2 L 744.4 245.2 L 747.2 245.2 L 750.1 245.2 L 753.0 245.2 L 755.8 245.2 L 758.7 245.2 L 761.6 245.2 L 764.5 241.8 L 767.3 241.8 L 770.2 241.8 L 773.1 241.8 L 775.9 241.8 L 778.8 241.8 L 781.7 241.8 L 784.5 241.8 L 787.4 241.8 L 790.3 241.8 L 793.1 241.8 L 796.0 262.2" fill="none" stroke="#f2b45c" stroke-width="1.6" stroke-linejoin="round" stroke-linecap="round" pathLength="1" stroke-dasharray="1 1" stroke-dashoffset="1" filter="url(#glow)"><animate attributeName="stroke-dashoffset" values="1;0" dur="4.5s" begin="0.88s" repeatCount="indefinite" calcMode="linear"/></path><path d="M 340.0 290.5 L 342.9 289.5 L 345.7 288.6 L 348.6 287.8 L 351.5 287.1 L 354.3 286.4 L 357.2 285.9 L 360.1 285.4 L 362.9 285.1 L 365.8 284.8 L 368.7 284.6 L 371.5 284.5 L 374.4 284.4 L 377.3 284.3 L 380.2 284.3 L 383.0 284.3 L 385.9 284.4 L 388.8 284.4 L 391.6 284.4 L 394.5 284.5 L 397.4 284.5 L 400.2 284.5 L 403.1 284.6 L 406.0 284.6 L 408.8 284.7 L 411.7 284.8 L 414.6 284.9 L 417.4 285.1 L 420.3 285.4 L 423.2 285.7 L 426.0 286.1 L 428.9 286.5 L 431.8 287.1 L 434.6 287.7 L 437.5 288.5 L 440.4 289.3 L 443.2 290.2 L 446.1 291.2 L 449.0 292.2 L 451.8 293.3 L 454.7 294.3 L 457.6 295.4 L 460.5 296.5 L 463.3 297.6 L 466.2 298.6 L 469.1 299.5 L 471.9 300.3 L 474.8 301.1 L 477.7 301.7 L 480.5 302.2 L 483.4 302.5 L 486.3 302.8 L 489.1 302.8 L 492.0 302.8 L 494.9 302.6 L 497.7 302.3 L 500.6 301.9 L 503.5 301.4 L 506.3 300.8 L 509.2 300.1 L 512.1 299.4 L 514.9 298.7 L 517.8 298.0 L 520.7 297.2 L 523.5 296.5 L 526.4 295.7 L 529.3 295.1 L 532.2 294.4 L 535.0 293.8 L 537.9 293.2 L 540.8 292.7 L 543.6 292.2 L 546.5 291.7 L 549.4 291.2 L 552.2 290.8 L 555.1 290.3 L 558.0 289.9 L 560.8 289.4 L 563.7 288.9 L 566.6 288.4 L 569.4 287.9 L 572.3 287.4 L 575.2 286.8 L 578.0 286.2 L 580.9 285.6 L 583.8 285.0 L 586.6 284.4 L 589.5 283.8 L 592.4 283.3 L 595.2 282.8 L 598.1 282.4 L 601.0 282.0 L 603.8 281.8 L 606.7 281.7 L 609.6 281.6 L 612.5 281.8 L 615.3 282.0 L 618.2 282.4 L 621.1 282.9 L 623.9 283.5 L 626.8 284.2 L 629.7 285.1 L 632.5 286.0 L 635.4 287.1 L 638.3 288.1 L 641.1 289.3 L 644.0 290.4 L 646.9 291.6 L 649.7 292.7 L 652.6 293.8 L 655.5 294.8 L 658.3 295.8 L 661.2 296.6 L 664.1 297.4 L 666.9 298.1 L 669.8 298.7 L 672.7 299.2 L 675.5 299.6 L 678.4 299.9 L 681.3 300.0 L 684.2 300.2 L 687.0 300.2 L 689.9 300.2 L 692.8 300.1 L 695.6 300.0 L 698.5 299.9 L 701.4 299.8 L 704.2 299.6 L 707.1 299.5 L 710.0 299.3 L 712.8 299.2 L 715.7 299.1 L 718.6 298.9 L 721.4 298.8 L 724.3 298.6 L 727.2 298.4 L 730.0 298.2 L 732.9 297.9 L 735.8 297.6 L 738.6 297.2 L 741.5 296.8 L 744.4 296.3 L 747.2 295.7 L 750.1 295.0 L 753.0 294.2 L 755.8 293.4 L 758.7 292.5 L 761.6 291.6 L 764.5 290.6 L 767.3 289.5 L 770.2 288.5 L 773.1 287.4 L 775.9 286.4 L 778.8 285.4 L 781.7 284.5 L 784.5 283.6 L 787.4 282.9 L 790.3 282.2 L 793.1 281.7 L 796.0 281.3" fill="none" stroke="#9d8cff" stroke-width="1.6" stroke-linejoin="round" stroke-linecap="round" pathLength="1" stroke-dasharray="1 1" stroke-dashoffset="1" filter="url(#glow)"><animate attributeName="stroke-dashoffset" values="1;0" dur="4.5s" begin="1.10s" repeatCount="indefinite" calcMode="linear"/></path></g>
<rect x="26" y="82" width="36" height="20" rx="3" fill="#0b1d34" stroke="#4d9fff" stroke-width="0.9"/><text x="44" y="96" text-anchor="middle" font-size="11" font-weight="700" fill="#4d9fff">PY</text><text x="78" y="93" font-size="14.5" font-weight="700" fill="#d8e8ff">Python</text><text x="78" y="106" font-size="9" letter-spacing="0.3" fill="#4d6a99">signal / ML</text><rect x="842" y="86" width="16" height="12" rx="1.5" fill="#4d9fff" opacity="0.95"/><rect x="863" y="86" width="16" height="12" rx="1.5" fill="#4d9fff" opacity="0.95"/><rect x="884" y="86" width="16" height="12" rx="1.5" fill="#4d9fff" opacity="0.95"/><rect x="905" y="86" width="16" height="12" rx="1.5" fill="#4d9fff" opacity="0.95"/><rect x="926" y="86" width="16" height="12" rx="1.5" fill="#4d9fff" opacity="0.95"/><rect x="947" y="86" width="16" height="12" rx="1.5" fill="#4d9fff" opacity="0.95"/><rect x="968" y="86" width="16" height="12" rx="1.5" fill="#4d9fff" opacity="0.95"/><rect x="989" y="86" width="16" height="12" rx="1.5" fill="#4d9fff" opacity="0.95"/><rect x="1010" y="86" width="16" height="12" rx="1.5" fill="#4d9fff" opacity="0.95"/><rect x="1031" y="86" width="16" height="12" rx="1.5" fill="#4d9fff" opacity="0.95"/><rect x="1120" y="84" width="52" height="17" rx="8.5" fill="none" stroke="#f2b45c" stroke-width="1"/><text x="1146" y="96" text-anchor="middle" font-size="9.5" font-weight="700" letter-spacing="1" fill="#f2b45c">MAIN</text>
<rect x="26" y="122" width="36" height="20" rx="3" fill="#0b1d34" stroke="#48b4ff" stroke-width="0.9"/><text x="44" y="136" text-anchor="middle" font-size="11" font-weight="700" fill="#48b4ff">PT</text><text x="78" y="133" font-size="14.5" font-weight="700" fill="#d8e8ff">PyTorch</text><text x="78" y="146" font-size="9" letter-spacing="0.3" fill="#4d6a99">deep learning</text><rect x="842" y="126" width="16" height="12" rx="1.5" fill="#48b4ff" opacity="0.95"/><rect x="863" y="126" width="16" height="12" rx="1.5" fill="#48b4ff" opacity="0.95"/><rect x="884" y="126" width="16" height="12" rx="1.5" fill="#48b4ff" opacity="0.95"/><rect x="905" y="126" width="16" height="12" rx="1.5" fill="#48b4ff" opacity="0.95"/><rect x="926" y="126" width="16" height="12" rx="1.5" fill="#48b4ff" opacity="0.95"/><rect x="947" y="126" width="16" height="12" rx="1.5" fill="#48b4ff" opacity="0.95"/><rect x="968" y="126" width="16" height="12" rx="1.5" fill="#48b4ff" opacity="0.95"/><rect x="989" y="126" width="16" height="12" rx="1.5" fill="#48b4ff" opacity="0.95"/><rect x="1010" y="126" width="16" height="12" rx="1.5" fill="#48b4ff" opacity="0.95"/><rect x="1031" y="126" width="16" height="12" rx="1.5" fill="#24406a" opacity="0.5"/><text x="1174" y="136" text-anchor="end" font-size="10" letter-spacing="0.5" fill="#4d6a99">core</text>
<rect x="26" y="162" width="36" height="20" rx="3" fill="#0b1d34" stroke="#34c8f2" stroke-width="0.9"/><text x="44" y="176" text-anchor="middle" font-size="11" font-weight="700" fill="#34c8f2">GO</text><text x="78" y="173" font-size="14.5" font-weight="700" fill="#d8e8ff">Go</text><text x="78" y="186" font-size="9" letter-spacing="0.3" fill="#4d6a99">systems / desktop</text><rect x="842" y="166" width="16" height="12" rx="1.5" fill="#34c8f2" opacity="0.95"/><rect x="863" y="166" width="16" height="12" rx="1.5" fill="#34c8f2" opacity="0.95"/><rect x="884" y="166" width="16" height="12" rx="1.5" fill="#34c8f2" opacity="0.95"/><rect x="905" y="166" width="16" height="12" rx="1.5" fill="#34c8f2" opacity="0.95"/><rect x="926" y="166" width="16" height="12" rx="1.5" fill="#34c8f2" opacity="0.95"/><rect x="947" y="166" width="16" height="12" rx="1.5" fill="#34c8f2" opacity="0.95"/><rect x="968" y="166" width="16" height="12" rx="1.5" fill="#34c8f2" opacity="0.95"/><rect x="989" y="166" width="16" height="12" rx="1.5" fill="#24406a" opacity="0.5"/><rect x="1010" y="166" width="16" height="12" rx="1.5" fill="#24406a" opacity="0.5"/><rect x="1031" y="166" width="16" height="12" rx="1.5" fill="#24406a" opacity="0.5"/><text x="1174" y="176" text-anchor="end" font-size="10" letter-spacing="0.5" fill="#4d6a99">working</text>
<rect x="26" y="202" width="36" height="20" rx="3" fill="#0b1d34" stroke="#6f92cf" stroke-width="0.9"/><text x="44" y="216" text-anchor="middle" font-size="11" font-weight="700" fill="#6f92cf">TS</text><text x="78" y="213" font-size="14.5" font-weight="700" fill="#d8e8ff">Svelte + TS</text><text x="78" y="226" font-size="9" letter-spacing="0.3" fill="#4d6a99">reactive UI</text><rect x="842" y="206" width="16" height="12" rx="1.5" fill="#6f92cf" opacity="0.95"/><rect x="863" y="206" width="16" height="12" rx="1.5" fill="#6f92cf" opacity="0.95"/><rect x="884" y="206" width="16" height="12" rx="1.5" fill="#6f92cf" opacity="0.95"/><rect x="905" y="206" width="16" height="12" rx="1.5" fill="#6f92cf" opacity="0.95"/><rect x="926" y="206" width="16" height="12" rx="1.5" fill="#6f92cf" opacity="0.95"/><rect x="947" y="206" width="16" height="12" rx="1.5" fill="#6f92cf" opacity="0.95"/><rect x="968" y="206" width="16" height="12" rx="1.5" fill="#6f92cf" opacity="0.95"/><rect x="989" y="206" width="16" height="12" rx="1.5" fill="#6f92cf" opacity="0.95"/><rect x="1010" y="206" width="16" height="12" rx="1.5" fill="#24406a" opacity="0.5"/><rect x="1031" y="206" width="16" height="12" rx="1.5" fill="#24406a" opacity="0.5"/><text x="1174" y="216" text-anchor="end" font-size="10" letter-spacing="0.5" fill="#4d6a99">core</text>
<rect x="26" y="242" width="36" height="20" rx="3" fill="#0b1d34" stroke="#f2b45c" stroke-width="0.9"/><text x="44" y="256" text-anchor="middle" font-size="11" font-weight="700" fill="#f2b45c">AI</text><text x="78" y="253" font-size="14.5" font-weight="700" fill="#d8e8ff">OpenVINO / NPU</text><text x="78" y="266" font-size="9" letter-spacing="0.3" fill="#4d6a99">edge inference</text><rect x="842" y="246" width="16" height="12" rx="1.5" fill="#f2b45c" opacity="0.95"/><rect x="863" y="246" width="16" height="12" rx="1.5" fill="#f2b45c" opacity="0.95"/><rect x="884" y="246" width="16" height="12" rx="1.5" fill="#f2b45c" opacity="0.95"/><rect x="905" y="246" width="16" height="12" rx="1.5" fill="#f2b45c" opacity="0.95"/><rect x="926" y="246" width="16" height="12" rx="1.5" fill="#f2b45c" opacity="0.95"/><rect x="947" y="246" width="16" height="12" rx="1.5" fill="#f2b45c" opacity="0.95"/><rect x="968" y="246" width="16" height="12" rx="1.5" fill="#24406a" opacity="0.5"/><rect x="989" y="246" width="16" height="12" rx="1.5" fill="#24406a" opacity="0.5"/><rect x="1010" y="246" width="16" height="12" rx="1.5" fill="#24406a" opacity="0.5"/><rect x="1031" y="246" width="16" height="12" rx="1.5" fill="#24406a" opacity="0.5"/><text x="1174" y="256" text-anchor="end" font-size="10" letter-spacing="0.5" fill="#4d6a99">applied</text>
<rect x="26" y="282" width="36" height="20" rx="3" fill="#0b1d34" stroke="#9d8cff" stroke-width="0.9"/><text x="44" y="296" text-anchor="middle" font-size="11" font-weight="700" fill="#9d8cff">WEB</text><text x="78" y="293" font-size="14.5" font-weight="700" fill="#d8e8ff">SCSS / Web</text><text x="78" y="306" font-size="9" letter-spacing="0.3" fill="#4d6a99">frontend</text><rect x="842" y="286" width="16" height="12" rx="1.5" fill="#9d8cff" opacity="0.95"/><rect x="863" y="286" width="16" height="12" rx="1.5" fill="#9d8cff" opacity="0.95"/><rect x="884" y="286" width="16" height="12" rx="1.5" fill="#9d8cff" opacity="0.95"/><rect x="905" y="286" width="16" height="12" rx="1.5" fill="#9d8cff" opacity="0.95"/><rect x="926" y="286" width="16" height="12" rx="1.5" fill="#9d8cff" opacity="0.95"/><rect x="947" y="286" width="16" height="12" rx="1.5" fill="#9d8cff" opacity="0.95"/><rect x="968" y="286" width="16" height="12" rx="1.5" fill="#24406a" opacity="0.5"/><rect x="989" y="286" width="16" height="12" rx="1.5" fill="#24406a" opacity="0.5"/><rect x="1010" y="286" width="16" height="12" rx="1.5" fill="#24406a" opacity="0.5"/><rect x="1031" y="286" width="16" height="12" rx="1.5" fill="#24406a" opacity="0.5"/><text x="1174" y="296" text-anchor="end" font-size="10" letter-spacing="0.5" fill="#4d6a99">working</text>
</svg>
